<?xml version="1.0" encoding="utf-8"?>
<svg width="155" height="60" fill="none" xmlns="http://www.w3.org/2000/svg">
  <g clip-path="url(#clip0_9500_3391)">
    <path d="M140.2 50H14.73A4.74 4.74 0 0110 45.27V14.73c0-2.61 2.12-4.73 4.73-4.73H140.2c2.61 0 4.8 2.12 4.8 4.73v30.54c0 2.61-2.2 4.73-4.8 4.73z" fill="#9AA6AD"/>
    <path d="M144.03 45.27c0 2.12-1.71 3.83-3.83 3.83H14.73c-2.12 0-3.84-1.71-3.84-3.83V14.72c0-2.11 1.72-3.83 3.84-3.83H140.2c2.12 0 3.83 1.72 3.83 3.84v30.54z" fill="#021A29"/>
  </g>
  <defs>
    <clipPath id="clip0_9500_3391">
      <path fill="#fff" transform="translate(10 10)" d="M0 0h135v40H0z"/>
    </clipPath>
  </defs>
  <path fill="#FFF" d="M 40.958 29.553 C 40.93 26.463 43.488 24.96 43.605 24.89 C 42.156 22.779 39.91 22.49 39.121 22.467 C 37.235 22.268 35.405 23.595 34.445 23.595 C 33.465 23.595 31.986 22.486 30.391 22.518 C 28.339 22.55 26.419 23.738 25.367 25.582 C 23.194 29.343 24.815 34.869 26.896 37.909 C 27.937 39.398 29.154 41.059 30.747 41.001 C 32.305 40.938 32.887 40.009 34.768 40.009 C 36.63 40.009 37.177 41.001 38.801 40.964 C 40.473 40.938 41.526 39.468 42.531 37.966 C 43.734 36.261 44.218 34.58 44.237 34.493 C 44.198 34.48 40.99 33.255 40.958 29.553 Z M 37.889 20.467 C 38.728 19.419 39.3 17.994 39.141 16.548 C 37.928 16.601 36.411 17.386 35.538 18.411 C 34.765 19.314 34.075 20.794 34.253 22.186 C 35.616 22.287 37.014 21.498 37.889 20.467 Z" style=""/>
  <g fill="#FFF" transform="matrix(4.00216, 0, 0, 4.0011, -170.400253, -83.455437)">
    <path d="M 58.451 31.052 L 57.906 31.052 L 57.608 30.115 L 56.572 30.115 L 56.288 31.052 L 55.758 31.052 L 56.785 27.863 L 57.419 27.863 L 58.451 31.052 Z M 57.518 29.723 L 57.249 28.89 C 57.22 28.805 57.166 28.605 57.088 28.289 L 57.079 28.289 C 57.047 28.425 56.996 28.625 56.927 28.89 L 56.662 29.723 L 57.518 29.723 Z M 61.085 29.874 C 61.085 30.265 60.979 30.574 60.767 30.801 C 60.577 31.003 60.34 31.104 60.058 31.104 C 59.753 31.104 59.534 30.995 59.401 30.778 L 59.401 31.984 L 58.89 31.984 L 58.89 29.509 C 58.89 29.263 58.884 29.011 58.872 28.753 L 59.321 28.753 L 59.35 29.117 L 59.359 29.117 C 59.53 28.843 59.788 28.705 60.134 28.705 C 60.406 28.705 60.632 28.813 60.814 29.027 C 60.994 29.242 61.085 29.525 61.085 29.874 Z M 60.564 29.893 C 60.564 29.669 60.515 29.485 60.413 29.34 C 60.303 29.188 60.154 29.112 59.968 29.112 C 59.842 29.112 59.729 29.155 59.626 29.238 C 59.524 29.321 59.457 29.431 59.424 29.566 C 59.411 29.618 59.403 29.67 59.401 29.722 L 59.401 30.106 C 59.401 30.273 59.452 30.413 59.555 30.529 C 59.657 30.645 59.79 30.702 59.954 30.702 C 60.147 30.702 60.297 30.627 60.404 30.479 C 60.511 30.332 60.564 30.136 60.564 29.893 Z M 63.729 29.874 C 63.729 30.265 63.623 30.574 63.411 30.801 C 63.22 31.003 62.984 31.104 62.702 31.104 C 62.398 31.104 62.179 30.995 62.046 30.778 L 62.046 31.984 L 61.535 31.984 L 61.535 29.509 C 61.535 29.263 61.528 29.011 61.516 28.753 L 61.965 28.753 L 61.994 29.117 L 62.003 29.117 C 62.173 28.843 62.431 28.705 62.779 28.705 C 63.05 28.705 63.276 28.813 63.457 29.027 C 63.638 29.242 63.729 29.525 63.729 29.874 Z M 63.209 29.893 C 63.209 29.669 63.159 29.485 63.057 29.34 C 62.947 29.188 62.799 29.112 62.613 29.112 C 62.487 29.112 62.372 29.155 62.27 29.238 C 62.167 29.321 62.1 29.431 62.069 29.566 C 62.053 29.63 62.045 29.681 62.045 29.722 L 62.045 30.106 C 62.045 30.273 62.096 30.413 62.199 30.529 C 62.301 30.644 62.434 30.702 62.598 30.702 C 62.791 30.702 62.941 30.627 63.047 30.479 C 63.155 30.332 63.209 30.136 63.209 29.893 Z M 66.686 30.158 C 66.686 30.429 66.591 30.65 66.403 30.82 C 66.195 31.006 65.905 31.099 65.534 31.099 C 65.191 31.099 64.916 31.033 64.709 30.901 L 64.827 30.475 C 65.051 30.608 65.297 30.674 65.564 30.674 C 65.757 30.674 65.907 30.63 66.013 30.544 C 66.12 30.457 66.175 30.341 66.175 30.196 C 66.175 30.067 66.13 29.958 66.042 29.87 C 65.954 29.782 65.808 29.699 65.603 29.624 C 65.044 29.416 64.765 29.111 64.765 28.711 C 64.765 28.449 64.863 28.234 65.06 28.068 C 65.257 27.9 65.518 27.817 65.843 27.817 C 66.133 27.817 66.375 27.867 66.567 27.968 L 66.439 28.384 C 66.258 28.287 66.054 28.238 65.826 28.238 C 65.646 28.238 65.504 28.282 65.404 28.37 C 65.318 28.449 65.275 28.545 65.275 28.659 C 65.275 28.785 65.325 28.89 65.422 28.971 C 65.507 29.047 65.662 29.129 65.886 29.217 C 66.16 29.327 66.362 29.457 66.491 29.605 C 66.621 29.753 66.686 29.937 66.686 30.158 Z M 68.379 29.136 L 67.816 29.136 L 67.816 30.253 C 67.816 30.537 67.915 30.678 68.114 30.678 C 68.205 30.678 68.281 30.671 68.341 30.654 L 68.355 31.042 C 68.254 31.08 68.122 31.099 67.958 31.099 C 67.756 31.099 67.598 31.037 67.484 30.914 C 67.371 30.79 67.314 30.585 67.314 30.294 L 67.314 29.135 L 66.979 29.135 L 66.979 28.752 L 67.314 28.752 L 67.314 28.331 L 67.816 28.18 L 67.816 28.752 L 68.379 28.752 L 68.379 29.136 Z M 70.914 29.883 C 70.914 30.237 70.813 30.527 70.611 30.754 C 70.4 30.988 70.119 31.104 69.769 31.104 C 69.431 31.104 69.163 30.992 68.963 30.769 C 68.762 30.545 68.662 30.262 68.662 29.922 C 68.662 29.565 68.766 29.274 68.972 29.047 C 69.178 28.82 69.457 28.706 69.808 28.706 C 70.145 28.706 70.416 28.818 70.621 29.042 C 70.816 29.26 70.914 29.539 70.914 29.883 Z M 70.384 29.896 C 70.384 29.684 70.339 29.504 70.248 29.353 C 70.141 29.17 69.987 29.079 69.788 29.079 C 69.584 29.079 69.427 29.17 69.32 29.353 C 69.229 29.504 69.184 29.688 69.184 29.905 C 69.184 30.115 69.229 30.297 69.32 30.447 C 69.43 30.63 69.585 30.721 69.785 30.721 C 69.98 30.721 70.132 30.628 70.244 30.443 C 70.337 30.288 70.384 30.107 70.384 29.896 Z M 72.575 29.202 C 72.522 29.193 72.468 29.188 72.414 29.188 C 72.234 29.188 72.095 29.255 71.998 29.392 C 71.913 29.512 71.87 29.663 71.87 29.846 L 71.87 31.052 L 71.359 31.052 L 71.359 29.477 C 71.36 29.235 71.355 28.995 71.344 28.753 L 71.789 28.753 L 71.808 29.193 L 71.822 29.193 C 71.876 29.042 71.961 28.92 72.078 28.829 C 72.185 28.749 72.314 28.705 72.447 28.705 C 72.494 28.705 72.536 28.709 72.575 28.715 L 72.575 29.202 Z M 74.86 29.794 C 74.86 29.871 74.854 29.949 74.84 30.025 L 73.309 30.025 C 73.314 30.253 73.389 30.426 73.531 30.546 C 73.66 30.653 73.827 30.707 74.032 30.707 C 74.259 30.707 74.466 30.671 74.652 30.598 L 74.732 30.953 C 74.515 31.048 74.257 31.095 73.961 31.095 C 73.605 31.095 73.325 30.989 73.121 30.78 C 72.918 30.571 72.816 30.289 72.816 29.936 C 72.816 29.59 72.911 29.301 73.1 29.071 C 73.299 28.825 73.567 28.702 73.904 28.702 C 74.236 28.702 74.487 28.825 74.657 29.071 C 74.792 29.266 74.86 29.507 74.86 29.794 Z M 74.372 29.661 C 74.376 29.51 74.343 29.379 74.273 29.268 C 74.185 29.126 74.049 29.055 73.867 29.055 C 73.7 29.055 73.563 29.125 73.46 29.263 C 73.375 29.374 73.324 29.506 73.309 29.661 L 74.372 29.661 Z" style=""/>
  </g>
  <g fill="#FFF" transform="matrix(4.00216, 0, 0, 4.0011, -170.400253, -83.455437)">
    <path d="M 56.425 26.737 C 56.283 26.737 56.16 26.73 56.058 26.718 L 56.058 25.176 C 56.2 25.155 56.345 25.143 56.49 25.144 C 57.076 25.144 57.345 25.432 57.345 25.902 C 57.345 26.444 57.027 26.737 56.425 26.737 Z M 56.511 25.341 C 56.431 25.341 56.365 25.347 56.308 25.358 L 56.308 26.53 C 56.339 26.534 56.397 26.537 56.478 26.537 C 56.862 26.537 57.08 26.318 57.08 25.909 C 57.08 25.544 56.882 25.341 56.511 25.341 Z M 58.186 26.748 C 57.856 26.748 57.642 26.502 57.642 26.167 C 57.642 25.818 57.861 25.57 58.205 25.57 C 58.53 25.57 58.749 25.804 58.749 26.148 C 58.749 26.502 58.524 26.748 58.186 26.748 Z M 58.196 25.753 C 58.014 25.753 57.898 25.923 57.898 26.16 C 57.898 26.393 58.017 26.562 58.193 26.562 C 58.37 26.562 58.489 26.38 58.489 26.155 C 58.489 25.925 58.372 25.753 58.196 25.753 Z M 60.631 25.592 L 60.279 26.723 L 60.048 26.723 L 59.901 26.232 C 59.865 26.112 59.835 25.99 59.811 25.867 L 59.806 25.867 C 59.788 25.99 59.753 26.114 59.716 26.232 L 59.56 26.723 L 59.327 26.723 L 58.994 25.592 L 59.252 25.592 L 59.38 26.13 C 59.411 26.258 59.436 26.379 59.458 26.493 L 59.462 26.493 C 59.48 26.398 59.511 26.279 59.555 26.132 L 59.716 25.593 L 59.92 25.593 L 60.073 26.121 C 60.111 26.248 60.141 26.374 60.165 26.493 L 60.171 26.493 C 60.187 26.377 60.213 26.254 60.248 26.121 L 60.385 25.593 L 60.631 25.592 Z M 61.933 26.723 L 61.682 26.723 L 61.682 26.074 C 61.682 25.874 61.605 25.774 61.454 25.774 C 61.305 25.774 61.203 25.902 61.203 26.05 L 61.203 26.723 L 60.952 26.723 L 60.952 25.916 C 60.952 25.816 60.949 25.709 60.942 25.592 L 61.163 25.592 L 61.175 25.767 L 61.182 25.767 C 61.249 25.646 61.386 25.57 61.54 25.57 C 61.777 25.57 61.933 25.751 61.933 26.046 L 61.933 26.723 Z M 62.625 26.723 L 62.373 26.723 L 62.373 25.075 L 62.625 25.075 L 62.625 26.723 Z M 63.54 26.748 C 63.211 26.748 62.996 26.502 62.996 26.167 C 62.996 25.818 63.215 25.57 63.559 25.57 C 63.884 25.57 64.103 25.804 64.103 26.148 C 64.103 26.502 63.877 26.748 63.54 26.748 Z M 63.55 25.753 C 63.368 25.753 63.252 25.923 63.252 26.16 C 63.252 26.393 63.371 26.562 63.547 26.562 C 63.724 26.562 63.842 26.38 63.842 26.155 C 63.842 25.925 63.727 25.753 63.55 25.753 Z M 65.093 26.723 L 65.074 26.592 L 65.068 26.592 C 64.991 26.698 64.88 26.748 64.737 26.748 C 64.535 26.748 64.391 26.606 64.391 26.416 C 64.391 26.137 64.633 25.993 65.052 25.993 L 65.052 25.972 C 65.052 25.823 64.973 25.749 64.817 25.749 C 64.706 25.749 64.608 25.777 64.522 25.832 L 64.47 25.667 C 64.576 25.602 64.706 25.57 64.859 25.57 C 65.154 25.57 65.303 25.725 65.303 26.037 L 65.303 26.453 C 65.303 26.567 65.308 26.656 65.319 26.723 L 65.093 26.723 Z M 65.059 26.16 C 64.78 26.16 64.64 26.228 64.64 26.387 C 64.64 26.506 64.712 26.565 64.812 26.565 C 64.94 26.565 65.059 26.466 65.059 26.334 L 65.059 26.16 Z M 66.523 26.723 L 66.51 26.541 L 66.503 26.541 C 66.431 26.678 66.31 26.748 66.14 26.748 C 65.868 26.748 65.667 26.509 65.667 26.172 C 65.667 25.818 65.876 25.569 66.161 25.569 C 66.312 25.569 66.419 25.62 66.48 25.723 L 66.485 25.723 L 66.485 25.075 L 66.736 25.075 L 66.736 26.418 C 66.736 26.527 66.739 26.63 66.746 26.723 L 66.523 26.723 Z M 66.485 26.058 C 66.485 25.9 66.38 25.764 66.22 25.764 C 66.034 25.764 65.92 25.93 65.92 26.162 C 65.92 26.39 66.039 26.546 66.216 26.546 C 66.373 26.546 66.485 26.409 66.485 26.246 L 66.485 26.058 Z M 68.33 26.748 C 68 26.748 67.786 26.502 67.786 26.167 C 67.786 25.818 68.005 25.57 68.349 25.57 C 68.674 25.57 68.893 25.804 68.893 26.148 C 68.893 26.502 68.668 26.748 68.33 26.748 Z M 68.339 25.753 C 68.158 25.753 68.042 25.923 68.042 26.16 C 68.042 26.393 68.16 26.562 68.337 26.562 C 68.514 26.562 68.632 26.38 68.632 26.155 C 68.632 25.925 68.516 25.753 68.339 25.753 Z M 70.243 26.723 L 69.992 26.723 L 69.992 26.074 C 69.992 25.874 69.915 25.774 69.764 25.774 C 69.615 25.774 69.513 25.902 69.513 26.05 L 69.513 26.723 L 69.262 26.723 L 69.262 25.916 C 69.262 25.816 69.259 25.709 69.252 25.592 L 69.473 25.592 L 69.485 25.767 L 69.492 25.767 C 69.559 25.646 69.696 25.569 69.85 25.569 C 70.087 25.569 70.243 25.751 70.243 26.046 L 70.243 26.723 Z M 71.932 25.781 L 71.655 25.781 L 71.655 26.33 C 71.655 26.469 71.704 26.539 71.802 26.539 C 71.847 26.539 71.883 26.534 71.913 26.527 L 71.92 26.718 C 71.872 26.737 71.807 26.746 71.726 26.746 C 71.528 26.746 71.41 26.637 71.41 26.351 L 71.41 25.781 L 71.244 25.781 L 71.244 25.592 L 71.41 25.592 L 71.41 25.386 L 71.655 25.311 L 71.655 25.592 L 71.932 25.592 L 71.932 25.781 Z M 73.261 26.723 L 73.011 26.723 L 73.011 26.079 C 73.011 25.877 72.934 25.774 72.782 25.774 C 72.653 25.774 72.531 25.863 72.531 26.042 L 72.531 26.723 L 72.28 26.723 L 72.28 25.075 L 72.531 25.075 L 72.531 25.753 L 72.536 25.753 C 72.615 25.63 72.73 25.569 72.876 25.569 C 73.115 25.569 73.261 25.755 73.261 26.05 L 73.261 26.723 Z M 74.623 26.218 L 73.869 26.218 C 73.874 26.432 74.016 26.552 74.225 26.552 C 74.337 26.552 74.44 26.534 74.53 26.499 L 74.569 26.674 C 74.463 26.72 74.337 26.744 74.19 26.744 C 73.837 26.744 73.628 26.52 73.628 26.174 C 73.628 25.828 73.842 25.567 74.162 25.567 C 74.45 25.567 74.632 25.781 74.632 26.104 C 74.634 26.142 74.63 26.181 74.623 26.218 Z M 74.393 26.039 C 74.393 25.864 74.305 25.742 74.145 25.742 C 74 25.742 73.887 25.867 73.87 26.039 L 74.393 26.039 Z" style=""/>
  </g>
  <text style="font-size: 36; font-family: Roboto; white-space: pre;" x="-423.977" y="47.703">/home/sesh/Code/Web_Dev/footballcouch/mysaina2/store/static/images/</text>
</svg>