<svg width="155" height="60" fill="none" xmlns="http://www.w3.org/2000/svg"><g clip-path="url(#clip0_9500_3391)"><path d="M140.2 50H14.73A4.74 4.74 0 0110 45.27V14.73c0-2.61 2.12-4.73 4.73-4.73H140.2c2.61 0 4.8 2.12 4.8 4.73v30.54c0 2.61-2.2 4.73-4.8 4.73z" fill="#9AA6AD"/><path d="M144.03 45.27c0 2.12-1.71 3.83-3.83 3.83H14.73c-2.12 0-3.84-1.71-3.84-3.83V14.72c0-2.11 1.72-3.83 3.84-3.83H140.2c2.12 0 3.83 1.72 3.83 3.84v30.54z" fill="#021A29"/><path d="M45.63 24.88c-.41-.3-1.22-.71-2.76-1.07-.46-.11-.99-.21-1.6-.31-.76-.12-1.64-.23-2.66-.32-.05 0-.09 0-.14-.01-.21-.49-.42-.99-.65-1.51-.12-.28-.24-.56-.36-.87-.01-.04-.03-.07-.04-.11-.45-1.1-.92-2.24-1.73-3.25-.9-1.12-2.09-1.73-3.34-1.73s-2.44.62-3.34 1.73c-.81 1.01-1.29 2.14-1.73 3.24-.02.04-.03.07-.04.11-.12.3-.24.58-.36.87-.23.53-.44 1.03-.65 1.51-.05 0-.1 0-.14.01-1.02.09-1.91.2-2.67.32-.6.1-1.13.2-1.59.31-1.55.36-2.35.77-2.76 1.07-.15.11-.23.29-.2.48l.13 1c.2 1.49.42 3.24.78 5.05.27 1.36.62 2.76 1.1 4.09.19.53.4 1.04.64 1.54a12.11 12.11 0 0010.84 6.72 12.106 12.106 0 0010.92-6.89c.18-.4.35-.81.5-1.23 1.1-2.96 1.52-6.22 1.87-8.82l.19-1.48a.508.508 0 00-.2-.47l-.01.02zm-13.29-1.94c-1.26 0-2.4.02-3.43.06.06-.13.11-.26.17-.4.13-.31.26-.62.38-.92.28-.69.55-1.36.89-1.96.16-.28.33-.54.53-.78.25-.31.78-.84 1.47-.84s1.21.53 1.47.84c.2.24.37.51.53.78.34.6.61 1.26.89 1.96.12.3.25.61.38.92.06.13.11.27.17.4-1.04-.04-2.18-.06-3.43-.06h-.02z" fill="url(#paint0_linear_9500_3391)"/><path d="M96.37 32.98c0 .47-.16.85-.48 1.12-.32.27-.81.41-1.46.41h-.67l.2 1.09h.87c.41.02.78-.05 1.11-.2.33-.15.61-.35.84-.61.23-.26.4-.57.53-.92.12-.35.19-.73.19-1.14V29.6h-1.12v3.39l-.01-.01zM96.97 26.83c-.23 0-.43.08-.59.24-.16.16-.24.35-.24.57 0 .22.08.42.24.58.16.16.35.24.59.24s.41-.08.57-.24c.16-.16.24-.36.24-.58 0-.22-.08-.41-.24-.57a.779.779 0 00-.57-.24zM100.18 26.11h-1.02v6.8h1.02v-6.8zM107.2 28.71c.19 0 .35-.07.48-.2.14-.13.2-.3.2-.48 0-.2-.07-.36-.2-.5a.66.66 0 00-.48-.21c-.2 0-.37.07-.51.21a.72.72 0 00-.2.5.686.686 0 00.71.68zM109.08 28.71c.2 0 .36-.07.5-.2s.2-.3.2-.48a.703.703 0 00-.7-.71c-.2 0-.36.07-.5.21-.14.14-.2.31-.2.5s.07.35.2.48c.13.14.3.2.5.2zM116.3 27.16c.22 0 .41-.08.57-.24.16-.16.24-.36.24-.58 0-.22-.08-.41-.24-.57a.779.779 0 00-.57-.24c-.22 0-.43.08-.59.24-.16.16-.24.35-.24.57 0 .22.08.42.24.58.16.16.35.24.59.24zM117.85 28.42c-.16-.21-.37-.38-.61-.51s-.52-.2-.84-.2c-.27 0-.51.04-.73.13a1.658 1.658 0 00-.94.93c-.09.21-.13.45-.13.7 0 .47.11.85.32 1.14.21.3.56.46 1.03.47l1.37.04c0 .19-.04.35-.13.48-.1.14-.31.2-.65.2h-3.01c-.22 0-.43-.05-.62-.15-.19-.1-.29-.3-.29-.59v-1.49h-1.09v1.44c0 .27-.04.47-.12.6-.08.13-.27.2-.56.2h-5.05c-.28 0-.48-.06-.61-.17-.13-.12-.19-.32-.19-.62v-1.44h-1.06v1.6c0 .55.12.97.38 1.27.25.3.63.45 1.14.45h5.61c.41 0 .75-.13 1.02-.39.2.16.42.26.66.31.25.05.5.08.77.08h3.18c.28 0 .52-.06.73-.17.2-.12.37-.27.51-.47.13-.2.23-.43.3-.69.06-.26.1-.53.1-.82v-.79c0-.28-.04-.55-.13-.82-.08-.27-.21-.5-.37-.71l.01-.01zm-1.67 1.6c-.15 0-.3-.04-.45-.11-.15-.06-.23-.19-.23-.38 0-.21.06-.38.17-.52.12-.14.32-.21.62-.21.16 0 .3.04.43.11s.23.17.32.29c.09.12.16.25.21.4.05.15.08.3.08.45l-1.14-.04-.01.01zM122.23 34.05c-.2 0-.36.07-.5.2a.703.703 0 00.5 1.19c.2 0 .36-.07.5-.21.13-.14.2-.31.2-.5s-.07-.35-.2-.48c-.14-.14-.3-.2-.5-.2zM124.35 31.03c0 .11 0 .22-.02.31-.01.1-.05.18-.1.25-.06.07-.14.12-.24.17-.11.04-.25.06-.43.06h-1.66c-.25 0-.45-.05-.59-.15-.14-.1-.22-.33-.22-.68v-4.87h-1.06v5.05c0 .61.16 1.06.47 1.33.32.27.74.41 1.28.41h2.09c.53 0 .92-.16 1.18-.47.26-.31.38-.73.38-1.25v-1.6h-1.09v1.44h.01zM124.03 34.05a.71.71 0 00-.51.2c-.14.13-.2.3-.2.48 0 .2.07.36.2.5s.3.21.51.21c.19 0 .35-.07.48-.21.13-.14.2-.31.2-.5s-.07-.35-.2-.48a.65.65 0 00-.48-.2zM127.81 32.98c0 .47-.16.85-.48 1.12-.32.27-.81.41-1.46.41h-.27l.18 1.09h.47c.41.01.78-.06 1.11-.2.33-.14.61-.35.84-.61.23-.26.4-.57.53-.92.12-.35.19-.73.19-1.14V29.6h-1.12v3.39l.01-.01zM135.21 30.91a2.03 2.03 0 00-.4-.6l-2.37-2.53-.71.73 2.39 2.52c.12.13.18.27.18.41 0 .1-.04.19-.13.27-.08.08-.21.12-.38.12h-3.47l.14 1.07h3.31c.52 0 .91-.14 1.18-.41.26-.27.4-.59.4-.96 0-.21-.04-.41-.13-.63l-.01.01zM66.62 33.57a2.1 2.1 0 01-2.1-2.1V20.95a2.1 2.1 0 114.2 0v10.52a2.1 2.1 0 01-2.1 2.1zM59.26 35.67H54a2.1 2.1 0 110-4.2h4.21v-6.31a2.1 2.1 0 114.2 0v7.36c0 1.74-1.42 3.15-3.15 3.15z" fill="#FCFCFC"/><path d="M71.87 39.88h-5.25a2.1 2.1 0 110-4.2h4.21v-6.31a2.1 2.1 0 114.2 0v7.35c0 1.74-1.42 3.16-3.16 3.16zM85.55 35.67h-5.23c-1.75 0-3.18-1.43-3.18-3.18v-9.44a2.1 2.1 0 114.2 0v8.41h4.21a2.1 2.1 0 110 4.2v.01zM72.93 25.15a2.1 2.1 0 100-4.2 2.1 2.1 0 000 4.2zM79.24 41.98a2.1 2.1 0 100-4.2 2.1 2.1 0 000 4.2z" fill="#FCFCFC"/></g><defs><linearGradient id="paint0_linear_9500_3391" x1="32" y1="16" x2="32.354" y2="43.75" gradientUnits="userSpaceOnUse"><stop stop-color="#97D700"/><stop offset=".465" stop-color="#4FBC25"/><stop offset="1" stop-color="#009F4D"/></linearGradient><clipPath id="clip0_9500_3391"><path fill="#fff" transform="translate(10 10)" d="M0 0h135v40H0z"/></clipPath></defs></svg>