<svg xmlns="http://www.w3.org/2000/svg" xmlns:xlink="http://www.w3.org/1999/xlink" viewBox="0 0 823.996 583.462"><style>.n,.o{fill-rule:evenodd}.B,.G,.o{fill:#2cc9a7}.B,.D{opacity:.1}.C{fill:#e9ccdb}.E{fill:#caa4bc}.F{fill:#9c7aa5}.H{fill:#ffd037}.L,.n{fill:#fff}.N{fill:#99b5c2}.O{fill:#ecf0f0}.P{fill:#fcd2b9}.Q,.S{fill:#faa878}.R{fill:#574128}.S{opacity:.19}.T,.e{fill:none;stroke-linecap:round;stroke-miterlimit:10}.T{stroke:#574128;stroke-width:1.593px}.V{fill:#303954}.W{fill:#404c70}.Y{fill:#e53232}.a{fill:#4c3a22}.b{fill:#725833}.c{fill:#261d11}.d{fill:#1c160d}.e{stroke:#404c70;stroke-width:1.911px}.i{fill:#5d6d75}.k{fill:#3a3768}.l{fill:#e6e8ec}.q{fill:#ffc83e}.r{fill:#293549}.s{fill:#40464f}.t{fill:#ffaf84}.v{fill:#ed8c62}.w{fill:#a8d8ef}</style><defs><path id="C" d="M421.97 299.798v62.167a11.4 11.4 0 01-.4 3.075 12.091 12.091 0 01-.4-3.075v-62.167a11.4 11.4 0 01.4-3.075 11.4 11.4 0 01.4 3.075z"/><path id="D" d="M340.687 288.033h68.718c6.494.01 11.756 5.27 11.765 11.765v62.167c-.008 6.495-5.27 11.76-11.765 11.768h-68.718c-6.495-.01-11.757-5.273-11.765-11.768v-62.167a11.87 11.87 0 0111.765-11.765z"/><path id="E" d="M416.492 380.013h-84.23l-.4-7.353c-.4-8.29 10.16-15.107 23.53-15.107h57.354c4.546 0 7.888 2.406 7.353 5.214z"/><path id="F" d="M500.852 380.548h84.227l.4-7.353c.535-8.29-10.16-15.107-23.53-15.107h-57.353c-4.412 0-7.888 2.406-7.353 5.214z"/><path id="G" d="M426.25 366.51h64.84c6.35 0 11.5 5.15 11.5 11.5v15.375h-87.17V377.34a10.783 10.783 0 0110.828-10.83z"/><path id="H" d="M338.548 353.408a15.51 15.51 0 00-30.881-2.003 15.51 15.51 0 0012.298 17.244v62.568h17.38v-72.06c.78-1.817 1.2-3.77 1.203-5.75z"/><path id="I" d="M580.533 353.408a15.51 15.51 0 0130.881-2.003 15.51 15.51 0 01-12.298 17.244v62.568h-17.383v-72.06a14.804 14.804 0 01-1.2-5.75z"/><path id="J" d="M303.922 321.723a6.821 6.821 0 01-2.808-2.005c-1.07-1.47-1.6-3.21 2.14-3.877 6.55-1.07 28.21-8.824 31.418-18.583s7.62-7.62 7.62-7.62 12.968 25.268 18.717 29.412c0 0 16.043 19.92 23.13 21.792 7.22 1.872-6.284 8.957-7.353 9.09s-12.835 3.476-23.664 12.032a33.364 33.364 0 00-9.492 12.032c-1.2 2.406-2.94 4.412-4.813.4-3.476-7.086-14.17-34.36-22.728-40.242.134-.132-9.225-11.362-12.166-12.432z"/><path id="K" d="M593.1 319.05a3.976 3.976 0 001.6-2.273c.4-1.337.134-2.674-3.21-2.005-6.016 1.2-27.14 2.273-33.423-3.6s-9.225-2.94-9.225-2.94-1.738 21.39-5.214 25.936c0 0-6.417 18.583-11.765 21.926s8.7 4.412 9.626 4.01a75.25 75.25 0 0124.473 1.342c4.484.93 8.72 2.8 12.433 5.48 1.872 1.337 4.01 2.14 4.278-1.2.4-5.882-.535-28.076 4.68-34.626-.136.26 3.74-10.436 5.747-12.04z"/><path id="L" d="M696.713 436.7a1.34 1.34 0 001.337-1.337v-5.214a1.34 1.34 0 00-1.337-1.337 1.34 1.34 0 00-1.337 1.337v5.214c-.133.802.535 1.337 1.337 1.337z"/><path id="M" d="M687.22 344.85a1.42 1.42 0 01-1.2 1.337l-8.423.134a1.42 1.42 0 01-1.337-1.2 1.42 1.42 0 011.2-1.337l8.423-.134c.34-.028.674.084.928.31s.4.55.41.89z"/><path id="N" d="M720.377 301.937c1.096-.027 1.978-.91 2.005-2.005s-.936-6.15-2.005-6.15-2.005 6.15-2.005 6.15a1.97 1.97 0 002.005 2.005z"/><path id="O" d="M691.365 367.58c-3.342.8-5.48 3.476-4.813 6.016l11.364 38.5c.8 2.94 6.685 1.738 6.15-1.337l-5.883-39.707c-.267-2.674-3.476-4.144-6.818-3.476z"/><path id="P" d="M692.702 420.255l2.273-10.562c.274-.46.822-.68 1.337-.535a12.24 12.24 0 008.022.134 1.04 1.04 0 011.471.535l.936 8.022a2.04 2.04 0 01-2.005 2.273h-12.034z"/><filter id="A" x="543.276" y="125.98" width="185.052" height="86.695" filterUnits="userSpaceOnUse"><feOffset dy="3"/><feGaussianBlur stdDeviation="3" result="A"/><feFlood flood-opacity=".16"/><feComposite operator="in" in2="A"/><feComposite in="SourceGraphic"/></filter><filter id="B" x="380.529" y="202.424" width="193.49" height="89.222" filterUnits="userSpaceOnUse"><feOffset dy="3"/><feGaussianBlur stdDeviation="3" result="A"/><feFlood flood-opacity=".16"/><feComposite operator="in" in2="A"/><feComposite in="SourceGraphic"/></filter></defs><path d="M0 583.462l758.758-418.87C837.935 126.618 867.658.972 715.865.576L.32.35z" fill="#0b5d8e" fill-rule="evenodd"/><ellipse class="B" cx="459.942" cy="440.443" rx="179.149" ry="19.787"/><path class="C" d="M497.243 299.798v62.167a11.4 11.4 0 01-.4 3.075 11.636 11.636 0 01-11.364 8.556h-52.543c-6.493-.01-11.755-5.27-11.765-11.763v-62.035c.01-6.494 5.27-11.756 11.765-11.765h52.542c5.266.016 9.893 3.5 11.364 8.556.265 1.05.4 2.127.4 3.21z"/><use xlink:href="#C" class="D"/><use xlink:href="#D" class="C"/><use xlink:href="#C" x="75.27" class="D"/><use xlink:href="#D" x="168.187" class="C"/><use xlink:href="#E" class="D"/><use xlink:href="#E" y=".802" class="E"/><use xlink:href="#F" class="D"/><use xlink:href="#F" y=".802" class="E"/><path class="D" d="M431.064 358.088h57.087c6.71.025 12.14 5.457 12.166 12.166v7.487h-82.49v-6.417a13.18 13.18 0 0113.236-13.236z"/><path class="E" d="M431.064 358.9h57.087c6.71.024 12.142 5.457 12.166 12.166v7.487h-82.49v-6.417a13.27 13.27 0 0113.236-13.236z"/><path class="C" d="M338.013 366.51h68.32c6.35 0 11.5 5.15 11.5 11.5v15.375h-84.9V371.59a5.075 5.075 0 011.487-3.593 5.08 5.08 0 013.593-1.487z"/><use xlink:href="#G" class="D"/><use xlink:href="#G" x="1.74" class="D"/><use xlink:href="#G" x=".803" class="C"/><path class="D" d="M506.066 366.51h69.387c6.044.027 10.936 4.92 10.963 10.963v16.043h-84.763v-22.46a4.32 4.32 0 014.413-4.546z"/><path class="C" d="M506.87 366.51h69.254c6.044.027 10.936 4.92 10.963 10.963v16.043h-84.763v-22.46a4.594 4.594 0 014.546-4.546z"/><path class="F" d="M334.27 429.212v11.5a5.936 5.936 0 01-5.883 5.882h-4a5.821 5.821 0 01-5.883-5.75v-11.5h15.776zm266.852 0v11.5a5.936 5.936 0 01-5.883 5.882h-4a5.935 5.935 0 01-5.882-5.882v-11.5z"/><use xlink:href="#H" class="C"/><use xlink:href="#I" class="C"/><use xlink:href="#H" class="D"/><use xlink:href="#I" class="D"/><path d="M329.056 420.255H590.96v12.032H329.056z" class="F"/><path d="M331.864 393.383h257.493v27.808H331.864z" class="D"/><path d="M331.864 392.58h257.493v27.808H331.864z" class="E"/><path d="M585.48 429.212h15.642v4.01H585.48z" class="D"/><path class="C" d="M584.4 354.61a15.51 15.51 0 0130.891-1.948 15.51 15.51 0 01-12.441 17.19v62.568h-17.38v-72.06a14.17 14.17 0 01-1.07-5.749z"/><path d="M318.494 429.212h15.508v4.01h-15.508z" class="D"/><path class="C" d="M335.072 354.61a15.51 15.51 0 00-30.881-2.003 15.51 15.51 0 0012.298 17.244v62.568h17.38v-72.06a14.3 14.3 0 001.203-5.749z"/><path d="M337.48 392.58h244.258v.802H337.48z" class="D"/><circle class="E" cx="318.494" cy="354.211" r="6.952"/><circle class="E" cx="601.122" cy="354.211" r="6.952"/><use xlink:href="#J" class="G"/><use xlink:href="#J" class="D"/><path class="G" d="M308.467 321.19a5.09 5.09 0 01-2.54-1.872c-1.07-1.337-1.47-2.94 2.005-3.476 6.15-1.07 26.74-8.423 29.814-17.514s7.353-7.086 7.353-7.086 11.765 22.86 17.246 26.6c0 0 14.84 17.915 21.525 19.52s-6.15 8.29-7.086 8.423a64.824 64.824 0 00-22.46 11.364 30.56 30.56 0 00-9.091 11.1c-1.07 2.273-2.808 4.01-4.546.4-3.075-6.417-12.835-31.15-20.722-36.5.001.138-8.69-10.023-11.497-10.958z"/><path class="D" d="M340.554 358.22s1.47 0 7.62-2.54-7.62 2.54-7.62 2.54zm248-41.978v8.155l-3.476 8.155c-5.08 6.685-4.278 28.744-4.68 34.626-.134 3.342-2.406 2.54-4.278 1.2a33.44 33.44 0 00-12.433-5.481 75.26 75.26 0 00-24.466-1.337c-.936.267-14.974-.668-9.626-4.145s11.765-21.926 11.765-21.926c3.476-4.68 5.214-25.936 5.214-25.936s2.94-2.808 9.225 2.94c6.15 5.5 25.668 4.818 32.754 3.748z"/><use xlink:href="#K" class="G"/><use xlink:href="#K" class="D"/><path class="G" d="M591.63 319.985a4.75 4.75 0 001.471-2.139c.4-1.337.134-2.54-3.075-1.872-5.615 1.2-25.8 2.14-31.82-3.342s-8.824-2.808-8.824-2.808-1.738 20.32-4.947 24.733c0 0-6.15 17.647-11.23 20.856s8.29 4.145 9.09 3.877a71.614 71.614 0 0123.263 1.337c4.242.9 8.25 2.676 11.765 5.214 1.738 1.337 3.877 2.005 4.01-1.07.267-5.615-.4-26.6 4.412-32.888.133-.267 3.876-10.294 5.882-11.898z"/><path class="D" d="M576.656 331.75a68.06 68.06 0 01-8.556 3.342c-7.086 2.273 7.353-1.07 8.556-3.342zm-.668 7.487s-4.412 3.6-6.685 4 5.348-.535 6.685-4zm3.476 16.845s-4.412 3.6-6.685 4 5.348-.535 6.685-4z"/><path class="G" d="M276.648 368.25s3.075 4.01-1.337 9.893-8.022 11.1-6.55 14.706c0 0 6.685-11.1 12.032-11.23s1.872-6.684-4.144-13.37z"/><path class="D" d="M276.65 368.25a5.42 5.42 0 01.668 1.2c5.348 6.284 8.155 12.032 3.075 12.166-4.68.134-10.428 8.556-11.765 10.7 0 .134.134.4.134.535s6.685-11.1 12.032-11.23 1.872-6.686-4.144-13.37z"/><path class="H" d="M282.26 373.33c0 1.337-.134 2.54-.4 2.54s-.4-1.07-.4-2.54.267-.668.4-.668.4-.67.4.668z"/><path class="H" d="M284.27 374.934a5.4 5.4 0 01-2.406.936c-.134-.134.8-.8 2.005-1.47s.668-.134.8 0 .804-.134-.4.535z"/><path class="G" d="M260.738 368.25s-3.075 4.01 1.337 9.893 8.022 11.1 6.55 14.706c0 0-6.685-11.1-12.032-11.23s-1.872-6.684 4.144-13.37z"/><path class="D" d="M260.738 368.25c-.273.37-.497.773-.668 1.2-5.348 6.284-8.155 12.032-3.075 12.166 4.68.134 10.428 8.556 11.765 10.7 0 .134-.134.267-.134.535 0 0-6.685-11.1-12.032-11.23s-1.872-6.686 4.144-13.37z"/><path class="H" d="M255.124 373.33c0 1.337.134 2.54.4 2.54s.4-1.07.4-2.54-.267-.668-.4-.668-.4-.67-.4.668z"/><path class="H" d="M253.118 374.934a5.4 5.4 0 002.406.936c.134-.134-.8-.8-2.005-1.47s-.668-.134-.8 0-.804-.134.4.535z"/><ellipse class="B" cx="268.76" cy="418.383" rx="31.685" ry="4.813"/><path d="M284.937 387.634l-.134 1.2-.267 1.738-.134.668-.267 1.738-.134.668-.267 1.738-2.406 19.92c-.267 1.738-3.075 3.21-6.55 3.21h-12.434c-3.476 0-6.417-1.337-6.55-3.21l-2.406-19.787-.267-1.738-.134-.668-.267-1.738-.134-.668-.267-1.738-.134-1.2c-.134-1.07 1.47-1.872 3.476-1.872h25.8c2.14-.132 3.612.803 3.478 1.74z" fill="#65617d"/><path d="M284.803 388.837l-.134 1.738h-31.82l-.267-1.738zm-.267 2.54l-.267 1.738h-31.15l-.267-1.738zm-.266 2.407l-.267 1.738h-30.616l-.134-1.738z" fill="#9d9cb5"/><circle cx="610.079" cy="289.102" r="4.679" fill="#bfdbf5"/><path class="L" d="M603.26 267.043h26.34a.86.86 0 01.8.8.86.86 0 01-.8.8h-26.34a.86.86 0 01-.8-.8q.2-.8.8-.8zm0 9.36h26.34a.86.86 0 01.8.8.86.86 0 01-.8.8h-26.34a.86.86 0 01-.8-.8c.134-.4.4-.8.8-.8zm0-4.68h32.62a.86.86 0 01.8.8.86.86 0 01-.8.8h-32.62a.86.86 0 01-.8-.8q.2-.8.8-.8zm-2.673 51.606h15.9v9.36h-15.9z"/><ellipse cx="685.082" cy="439.775" rx="84.628" ry="3.476" fill="#b4d6e4" opacity=".3"/><path class="N" d="M707.28 396.054h1.738c25.146-.078 45.51-20.443 45.59-45.59v-18.982c-.022-5.973-4.86-10.81-10.833-10.83H707.41a10.87 10.87 0 00-10.83 10.829v53.61c-.047 2.876 1.058 5.65 3.067 7.71s4.757 3.228 7.633 3.25z"/><path class="N" d="M723.72 431.352h.267a4.31 4.31 0 004.278-4.278v-35.028a4.31 4.31 0 00-4.278-4.278h-.267a4.31 4.31 0 00-4.278 4.278v35.16a4.289 4.289 0 004.278 4.145z"/><path class="N" d="M697.382 432.823h53.076a2.057 2.057 0 002.005-2.005 2.057 2.057 0 00-2.005-2.005h-53.076a2.057 2.057 0 00-2.005 2.005 1.83 1.83 0 002.005 2.005z"/><use xlink:href="#L" class="N"/><path class="N" d="M723.853 436.7a1.34 1.34 0 001.337-1.337v-5.214a1.34 1.34 0 00-1.337-1.337 1.34 1.34 0 00-1.337 1.337v5.214a1.264 1.264 0 001.338 1.338z"/><use xlink:href="#L" x="54.413" class="N"/><circle class="N" cx="696.713" cy="436.699" r="3.476"/><circle class="N" cx="723.853" cy="436.699" r="3.476"/><circle class="N" cx="751.126" cy="436.699" r="3.476"/><path class="O" d="M706.874 348.06a6.53 6.53 0 006.952-5.883l1.337-18.717a6.532 6.532 0 00-5.883-6.952 6.531 6.531 0 00-6.952 5.882l-1.34 18.714a6.451 6.451 0 005.887 6.956z"/><path class="O" d="M689.628 345.12a4.49 4.49 0 004.947 3.877l16.177-2.14a4.49 4.49 0 003.877-4.947 4.49 4.49 0 00-4.947-3.877l-16.177 2.14a4.41 4.41 0 00-3.877 4.947z"/><path class="P" d="M695.508 344.318c0 1.872-2.406 3.476-5.348 3.476h-2.273c-2.94 0-5.348-1.47-5.48-3.476 0-1.872 2.406-3.476 5.348-3.476h2.273c3.08.134 5.48 1.6 5.48 3.476z"/><path class="P" d="M690.83 346.587a1.42 1.42 0 01-1.2 1.337l-8.423.134a1.42 1.42 0 01-1.337-1.2 1.42 1.42 0 011.2-1.337l8.423-.134c.34-.028.675.084.928.31s.4.55.41.89z"/><use xlink:href="#M" class="P"/><path class="P" d="M687.22 342.58a1.42 1.42 0 01-1.2 1.337l-8.423.134a1.42 1.42 0 01-1.337-1.2 1.42 1.42 0 011.2-1.337l8.423-.134c.344-.052.693.052.95.285s.4.568.385.915z"/><path class="P" d="M689.76 343.652a1.14 1.14 0 01-.596.64 1.14 1.14 0 01-.875.028l-6.016-2.005a1.14 1.14 0 01-.668-1.471 1.14 1.14 0 011.471-.668l6.016 2.005a1.08 1.08 0 01.668 1.471z"/><path class="Q" d="M724.12 318.515a5.99 5.99 0 006.016-6.016 5.99 5.99 0 00-6.016-6.016 5.99 5.99 0 00-6.016 6.016 5.99 5.99 0 006.016 6.016z"/><circle class="P" cx="711.553" cy="296.322" r="3.342"/><circle class="Q" cx="711.553" cy="296.322" r="2.406"/><path class="R" d="M732.276 307.418a6.13 6.13 0 004.354-1.796 6.134 6.134 0 001.796-4.354v-8.823a6.131 6.131 0 00-1.796-4.354 6.13 6.13 0 00-4.354-1.796 6.13 6.13 0 00-4.354 1.796 6.134 6.134 0 00-1.796 4.354v8.824a6.05 6.05 0 006.15 6.149z"/><path class="R" d="M737.356 304.745c.285.004.56-.107.76-.31s.313-.476.31-.76v-6.95c.004-.285-.107-.56-.31-.76s-.476-.313-.76-.31c-.285-.004-.56.107-.76.31s-.313.476-.31.76v6.952c-.134.534.4 1.07 1.07 1.07z"/><path class="P" d="M721.58 311.83h2.406c7.52-.03 13.606-6.12 13.637-13.637V291.9c-.032-7.518-6.118-13.604-13.636-13.636-7.52.03-13.606 6.118-13.637 13.637v8.7a11.39 11.39 0 0011.23 11.23z"/><path class="S" d="M715.43 281.483a13.27 13.27 0 00-3.075 8.69v8.7c.03 6.118 4.982 11.07 11.1 11.1h2.406a14.32 14.32 0 008.69-3.075 13.46 13.46 0 01-10.428 4.947h-2.408a11.16 11.16 0 01-11.1-11.1v-8.7a13.018 13.018 0 014.815-10.562z"/><path class="R" d="M727.864 284.423v7.353a5.22 5.22 0 005.214 5.214 5.22 5.22 0 005.214-5.214v-7.353a5.22 5.22 0 00-5.214-5.214c-1.39-.02-2.728.522-3.7 1.504s-1.525 2.32-1.504 3.7z"/><path class="R" d="M720.778 297h3.476c5.97-.022 10.807-4.858 10.83-10.83-.022-5.97-4.858-10.806-10.83-10.83H709.95v10.83a10.96 10.96 0 0010.829 10.829z"/><path class="R" d="M711.553 285.894H729.2a4.164 4.164 0 004.145-4.145 4.165 4.165 0 00-4.145-4.144h-21.8v4.144a4.08 4.08 0 004.144 4.145zM729.87 275.6l2.14 2.14a1 1 0 001.2 0 1 1 0 000-1.2l-2.808-2.808-.535.535c-.27.404-.27.932.004 1.334z"/><path class="R" d="M732.677 275.464v4.412a.91.91 0 00.937.935c.25.006.492-.1.67-.267s.274-.42.267-.668v-5.212h-.936a.894.894 0 00-.936.8z"/><path class="R" d="M734.95 276.937l-3.075 3.075a.75.75 0 000 1.2.75.75 0 001.2 0l3.743-3.743-.67-.668a1.33 1.33 0 00-1.199.136z"/><path class="R" d="M736.688 278.675h-4.412a.913.913 0 00-.937.937.91.91 0 00.937.936h5.214v-.936a.75.75 0 00-.802-.936z"/><path class="P" d="M719.842 301.67h8.022a8.96 8.96 0 008.957-8.957 8.96 8.96 0 00-8.957-8.958h-8.022a8.96 8.96 0 00-8.957 8.957c.047 4.927 4.03 8.9 8.957 8.958z"/><use xlink:href="#N" class="S"/><use xlink:href="#N" y="-.535" class="Q"/><circle class="R" cx="715.564" cy="295.52" r="1.203"/><circle class="R" cx="725.19" cy="295.52" r="1.203"/><path class="R" d="M733.88 294.718v-8.556a1.83 1.83 0 011.872-1.872 1.83 1.83 0 011.872 1.872v8.556a1.83 1.83 0 01-1.872 1.872c-.5.012-.983-.18-1.337-.535a1.83 1.83 0 01-.535-1.337z"/><path class="T" d="M717.703 290.707a2.986 2.986 0 00-4.28 0" stroke-width="1.593"/><path d="M718.238 304.2a2.987 2.987 0 004.28 0" stroke-width=".702" stroke="#574128" fill="none" stroke-linecap="round" stroke-miterlimit="10"/><circle class="P" cx="736.286" cy="296.322" r="3.342"/><circle class="Q" cx="736.286" cy="296.322" r="2.406"/><path class="T" d="M727.33 290.707a2.986 2.986 0 00-4.28 0" stroke-width="1.593"/><path class="R" d="M733.61 301.27a1.626 1.626 0 001.6-1.6v-16.854a1.626 1.626 0 00-1.6-1.6 1.626 1.626 0 00-1.6 1.6v16.98a1.71 1.71 0 001.6 1.475z"/><path class="R" d="M732.543 289.637a2.4 2.4 0 002.406-2.406v-4.145a2.4 2.4 0 00-2.406-2.406 2.4 2.4 0 00-2.406 2.406v4.145a2.485 2.485 0 002.406 2.406z"/><path class="V" d="M722.382 365.71c-.8-3.743-3.075-6.417-5.08-5.75l-29.01 9.626c-2.273.668-.8 7.22 1.6 6.952l30.348-3.476c2.005-.267 3.075-3.6 2.14-7.353z"/><use xlink:href="#O" class="V"/><path class="W" d="M738.024 366.645c-.8-3.743-3.075-6.417-5.08-5.75l-29.01 9.626c-2.273.668-.8 7.22 1.6 6.952l30.348-3.476c2.005-.267 2.94-3.6 2.14-7.353z"/><use xlink:href="#O" x="15.508" y=".936" class="W"/><path class="W" d="M718.772 374.4h13.37a7.99 7.99 0 007.888-7.888 7.99 7.99 0 00-7.888-7.888h-13.37a7.99 7.99 0 00-7.888 7.888 7.9 7.9 0 007.888 7.888z"/><path d="M713.558 364.238h26.6l3.877-46.926H709.68zm13.369-46.926h17.113l-8.556-1.337-13.37-1.47-3.877 1.47-8.556 1.337z" fill="#b6c6f5"/><path class="Y" d="M722.115 358.623c1.07 0 1.872-1.337 1.872-2.808v-35.962c0-1.6-.8-2.808-1.872-2.808s-1.872 1.337-1.872 2.808v35.963c.134 1.604.936 2.807 1.872 2.807z"/><path class="Y" d="M720.644 317.178l.936.936c.17.19.413.3.67.3s.5-.1.67-.3l.936-.936a1.05 1.05 0 000-1.471l-.936-.936c-.17-.19-.413-.3-.67-.3s-.5.1-.67.3l-.936.936a1.435 1.435 0 000 1.47z"/><path class="L" d="M743.372 316.643c.143.01.257.124.267.267 0 .267.134.668.134.936l-2.808 52.54c0 2.94-5.08 7.888-11.364 7.888l-6.685-.134c-2.94 0-2.14-4.813-2.14-7.754l8.824-52.54a5.44 5.44 0 011.07-3.209z"/><path class="O" d="M731.607 333.62l-2.273-3.877L733.21 326a2.964 2.964 0 00.8-3.075l-2.94-7.888-2.54-.4a1.27 1.27 0 00-1.6.936v-.535s-2.273 35.7-5.615 51.2l4.813-.936a26.73 26.73 0 002.273-7.219l3.877-20.722a6.25 6.25 0 00-.67-3.74z"/><path class="L" d="M705.002 355.682V323.33c0-2.808 2.005-6.284 4.813-6.818l5.615-.668a4.764 4.764 0 011.07 3.075l2.674 36.766z"/><path class="O" d="M711.82 334.425l2.273-3.743-3.877-3.6a2.9 2.9 0 01-.8-3.075l2.94-7.754 2.808-.4 1.2-.134s2.54 26.872 2.94 43.317l-2.54 1.47c-.668-1.47-1.337.936-1.6-.668l-4.145-21.525a6.38 6.38 0 01.799-3.879z"/><path d="M732.142 314.772l-7.754 2.674-2.273-2.94 8.155-2.406zM716.1 316.11l3.743 1.337 2.273-2.94-4.01-1.872z" fill="#8995b8"/><path class="O" d="M748.184 346.19a4.334 4.334 0 003.21-5.348l-5.345-21.257a4.334 4.334 0 00-5.348-3.21 4.334 4.334 0 00-3.21 5.347l5.348 21.257a4.327 4.327 0 005.344 3.21z"/><path class="O" d="M726.524 342.98a3.8 3.8 0 004.011 3.743l17.38-.535a3.8 3.8 0 003.743-4.011 3.8 3.8 0 00-4.011-3.743l-17.38.535a3.88 3.88 0 00-3.743 4.011z"/><path class="P" d="M732.942 343.248c0 1.872-2.406 3.476-5.348 3.476h-2.273c-2.94 0-5.348-1.47-5.48-3.476 0-1.872 2.406-3.476 5.348-3.476h2.273c2.943 0 5.48 1.6 5.48 3.476z"/><path class="P" d="M728.13 345.52a1.42 1.42 0 01-1.2 1.337l-8.423.134a1.42 1.42 0 01-1.337-1.2 1.42 1.42 0 011.2-1.337l8.423-.134a1.163 1.163 0 011.337 1.2z"/><use xlink:href="#M" x="37.3" y="-1.07" class="P"/><use xlink:href="#M" x="37.3" y="-3.477" class="P"/><path class="P" d="M727.195 342.582a1.14 1.14 0 01-.596.64 1.14 1.14 0 01-.875.028l-6.016-2.005a1.14 1.14 0 01-.668-1.471 1.14 1.14 0 011.471-.668l6.016 2.005a1.2 1.2 0 01.668 1.471z"/><use xlink:href="#P" class="a"/><path class="a" d="M700.456 420.255h-10.16c-1.07 0-1.872-.668-1.872-1.337v-1.2c0-2.808 3.075-4.947 6.952-4.947s6.952 2.273 6.952 4.947v1.2c-.004.802-.804 1.337-1.872 1.337z"/><path class="b" d="M695.376 412.768c-3.877 0-6.952 2.273-6.952 4.947v.8c0-2.808 3.075-4.947 6.952-4.947s6.952 2.273 6.952 4.947v-.8c-.004-2.808-3.075-4.947-6.952-4.947z"/><path class="c" d="M704.333 420.255h-13.77a2.252 2.252 0 01-1.613-.66 2.25 2.25 0 01-.66-1.613h18.182a2.008 2.008 0 01-2.139 2.273z"/><path class="d" d="M704.868 419.586h-14.84c-.936 0-1.738-.4-1.738-.936v.668c0 .535.8.936 1.738.936h14.84c.936 0 1.738-.4 1.738-.936v-.535c0 .402-.802.803-1.738.803z"/><use xlink:href="#P" x="16.043" class="a"/><path class="a" d="M716.5 420.255h-10.16c-1.07 0-1.872-.668-1.872-1.337v-1.2c0-2.808 3.075-4.947 6.952-4.947s6.952 2.273 6.952 4.947v1.2c.134.802-.804 1.337-1.872 1.337z"/><path class="b" d="M711.42 412.768c-3.877 0-6.952 2.273-6.952 4.947v.8c0-2.808 3.075-4.947 6.952-4.947s6.952 2.273 6.952 4.947v-.8c.134-2.808-3.075-4.947-6.952-4.947z"/><path class="c" d="M720.5 420.255h-13.77a2.252 2.252 0 01-1.613-.66 2.25 2.25 0 01-.66-1.613h18.182a2.145 2.145 0 01-2.14 2.273z"/><path class="d" d="M721.045 419.586h-14.84c-.936 0-1.738-.4-1.738-.936v.668c0 .535.8.936 1.738.936h14.84c.936 0 1.738-.4 1.738-.936v-.535a1.8 1.8 0 01-1.738.803z"/><path d="M715.43 316.243v4.947" class="e" stroke-width="1.911"/><path d="M717.302 338.97a7.262 7.262 0 001.2-4.145v-8.29c0-2.808-1.337-5.214-3.075-5.214s-3.075 2.273-3.075 5.214v8.287a6.674 6.674 0 001.07 3.877" stroke="#80b2b2" stroke-width="1.174" fill="none" stroke-linecap="round" stroke-miterlimit="10"/><path class="e" d="M718.505 326.67c0-2.808-1.337-5.214-3.075-5.214s-3.075 2.273-3.075 5.214" stroke-width="1.911"/><ellipse class="W" cx="717.302" cy="338.97" rx=".401" ry=".668"/><ellipse class="W" cx="713.424" cy="338.97" rx=".401" ry=".668"/><path d="M732.677 315.173v23.53" stroke-width="1.652" stroke="#404c70" fill="none" stroke-linecap="round" stroke-miterlimit="10"/><circle cx="732.677" cy="338.703" r="3.209" fill="#80b2b2"/><circle class="W" cx="732.677" cy="338.703" r="1.872"/><path class="i" d="M646.712 440.3a3.3 3.3 0 003.075-3.476v-85.83a3.3 3.3 0 00-3.075-3.476 3.3 3.3 0 00-3.075 3.476v85.83a3.3 3.3 0 003.075 3.476z"/><path d="M636.017 440.3h118.05a10.161 10.161 0 0010.161-10.162v-71.39a10.161 10.161 0 00-10.161-10.161h-118.05a10.161 10.161 0 00-10.161 10.161v71.392c.045 5.593 4.568 10.116 10.16 10.16z" fill="#4d5b62"/><path class="i" d="M624.25 353.276h141.582a3.583 3.583 0 003.342-3.743 3.582 3.582 0 00-3.342-3.743H624.25a3.583 3.583 0 00-3.342 3.743c.134 2.138 1.6 3.743 3.342 3.743z"/><path class="N" d="M644.44 314.368l.8-.8h41.044l12.433 28.6h-40.9l-12.167-27.8z"/><path class="i" d="M656.605 342.178h39.84L684.28 314.37h-39.84z"/><path d="M713.02 345.955H656.6v-3.743h56.42z" class="N"/><path class="G" d="M477.694 167.63s15.7-20.48 24.258-18.867c0 0-9.513 18.233-24.258 20.95zm7.9-25.2s13.88-15.656 21.37-15.656c0 0-10.95 20.95-21.936 20.758z"/><rect class="k" width="5.017" height="41.347" rx="2.29" x="641.059" y="199.043"/><rect class="k" width="2.814" height="13.612" rx="1.407" x="474.342" y="166.649"/><rect class="k" width="3.171" height="23.691" rx="1.585" x="474.24" y="191.574"/><rect class="k" width="3.018" height="23.895" rx="1.509" x="474.291" y="223.555"/><rect class="k" width="167.833" height="341.095" rx="15" x="475.933" y="121.667"/><path class="G" d="M620.092 130.53H600.84v2.316a10.975 10.975 0 01-10.974 10.974h-61.233c-6.06.003-10.976-4.907-10.98-10.968v-2.322H499.63a13.33 13.33 0 00-13.329 13.329v296.708a13.33 13.33 0 0013.329 13.313h120.462a13.33 13.33 0 0013.329-13.33V143.88a13.33 13.33 0 00-13.307-13.35z"/><rect class="l" width="23.437" height="4.756" rx="2.378" x="543.661" y="131.854"/><circle class="l" cx="573.343" cy="134.232" r="2.701"/><path d="M501.26 163.008h117.183V411.72H501.26zm93.68 212.134s5.283.187 6.512.85" class="D"/><path class="n" d="M573.08 131.98h138.837c1.97-.008 3.86.77 5.252 2.163s2.17 3.283 2.163 5.252v53.865c.008 1.97-.77 3.86-2.163 5.252s-3.283 2.17-5.252 2.163H573.08c-1.97.008-3.86-.77-5.252-2.163s-2.17-3.283-2.163-5.252v-1.545c-8.132.103-13.385-6.49-13.385-6.49 5.46.618 10.2-4.84 13.286-9.887v-35.944a7.473 7.473 0 017.514-7.415z" transform="translate(-.004)" filter="url(#A)"/><path class="o" d="M578.436 146.4a1.44 1.44 0 110-2.884h34.605a1.44 1.44 0 110 2.884zm0 42.844a1.44 1.44 0 01-1.442-1.442c0-.796.646-1.442 1.442-1.442h57.675c.796 0 1.442.646 1.442 1.442a1.44 1.44 0 01-1.442 1.442zm0-14.316a1.44 1.44 0 110-2.884h24.82a1.44 1.44 0 110 2.884zm33.37 0a1.44 1.44 0 110-2.884h94.65a1.44 1.44 0 110 2.884zm-33.37-14.312a1.44 1.44 0 110-2.884h82.3a1.44 1.44 0 110 2.884zm93.928 0a1.44 1.44 0 110-2.884h34.1a1.44 1.44 0 110 2.884zm-52.73-14.216a1.44 1.44 0 110-2.884h86.72a1.44 1.44 0 110 2.884z"/><path class="n" d="M397.23 208.42h144.156a7.67 7.67 0 017.7 7.7v33.58c2.78 5.99 8.555 15.72 15.934 15.08 0 0-6.523 7.807-15.934 6.2v.962a7.67 7.67 0 01-7.7 7.7H397.23a7.67 7.67 0 01-7.7-7.7v-55.82a7.67 7.67 0 017.7-7.7z" transform="translate(-.001 .005)" filter="url(#B)"/><path class="o" d="M402.9 223.396a1.5 1.5 0 01-1.378-2.274 1.5 1.5 0 011.378-.72h35.93a1.5 1.5 0 011.378 2.274 1.5 1.5 0 01-1.378.72zm0 44.487a1.5 1.5 0 01-1.378-2.274 1.5 1.5 0 011.378-.72h59.884a1.5 1.5 0 011.378 2.274 1.5 1.5 0 01-1.378.72zm0-14.865a1.5 1.5 0 01-1.378-2.274 1.5 1.5 0 011.378-.72h25.77a1.5 1.5 0 011.378 2.274 1.5 1.5 0 01-1.378.72zm34.65 0a1.5 1.5 0 010-2.994h98.28a1.5 1.5 0 010 2.994zm-34.65-14.864a1.5 1.5 0 01-1.378-2.274 1.5 1.5 0 011.378-.72h85.443a1.5 1.5 0 011.378 2.274 1.5 1.5 0 01-1.378.72zm97.53 0a1.5 1.5 0 01-1.378-2.274 1.5 1.5 0 011.378-.72h35.4a1.5 1.5 0 011.378 2.274 1.5 1.5 0 01-1.378.72zm-54.757-14.758a1.5 1.5 0 01-1.378-2.274 1.5 1.5 0 011.378-.72h90.044a1.5 1.5 0 010 2.994z"/><circle class="L" cx="528.949" cy="183.526" r="16.59"/><circle class="L" cx="593.599" cy="256.463" r="19.932"/><path class="q" d="M415.288 434.16l-3.075-12.434 5.214-2.94 2.14 13.37z"/><path class="r" d="M419.7 430.282c.352.096.674.28.936.535a33.32 33.32 0 0010.562 6.551c3.342.936 3.342 2.674-1.47 2.005s-8.155-1.47-10.294-1.738a58.496 58.496 0 01-6.818-.535c-4.01-.535-2.14-5.48-.4-7.62a1.907 1.907 0 012.005-.8z"/><path class="q" d="M397.373 409.426l9.893-8.155 4.947 3.476-11.23 7.624z"/><path class="r" d="M402.85 411.828a1.42 1.42 0 01-.134 1.07 32.371 32.371 0 00-1.337 12.433c.668 3.342-.936 4.01-2.406-.4s-2.273-8.022-2.94-10.027a91.49 91.49 0 01-2.54-6.417c-1.2-3.877 4.01-4.278 6.685-3.476a1.85 1.85 0 011.6 1.471z"/><path class="s" d="M390.287 262.096c-7.353-2.674-7.754 10.027-3.743 15.776 2.406 3.476 5.615.8 8.022-3.743s4.277-8.958-4.28-12.033z"/><path class="t" d="M379.325 300.065a5.07 5.07 0 01-4.144-2.273l-3.075-4.813c-3.743-6.016-.4-15.24.4-16.98a4.816 4.816 0 018.824 3.61c-1.2 3.075-1.738 7.22-1.07 8.29l3.21 5.08a4.69 4.69 0 01-1.738 6.551c-.764.318-1.58.5-2.406.535z"/><path class="r" d="M358.605 367.046s-4.144-4.278-1.47-18.85h34.226c.245 6.284.156 12.576-.267 18.85z"/><path d="M442.026 361.03c-3.075-4.278-10.16-7.353-34.36-8.556-12.968-.668-25.134-.4-25.67-.4a6.82 6.82 0 00-5.747 10.359 6.82 6.82 0 006.014 3.278c17.514-.4 38.236.668 46.392 2.808-5.615 10.562-20.722 28.744-26.74 35.43l3.743 6.952c2.674-2.94 32.89-27.808 37.568-41.712a8.52 8.52 0 00-1.203-8.158z" fill="#202a38"/><path class="r" d="M416.224 367.313a7.977 7.977 0 00-1.738-6.15c-1.738-2.14-5.615-6.685-50.27-7.888a6.89 6.89 0 00-6.293 10.164 6.89 6.89 0 005.893 3.606c14.44.4 31.418 1.738 38.5 3.21-.134 17.246 9.09 53.343 9.893 57.89l7.888-1.6c-3.473-17.92-5.078-50.54-3.874-59.23z"/><path class="t" d="M421.037 345.922c-1.337 0-4.01 0-5.75-.134a30.15 30.15 0 01-4.813-3.209c-4.412-3.743-11.364-10.428-12.567-15.776-.8-3.476-2.54-23.263-3.476-35.83a4.083 4.083 0 00-8.154.4v.4c.267 3.21 2.674 31.685 3.743 36.9 1.872 8.7 13.637 16.98 18.583 20.188a7.93 7.93 0 005.348 3.342 40.59 40.59 0 006.952.535c2.273 0 5.615-.8 4.813-2.94-1.07-2.27-2.54-3.875-4.68-3.875z"/><path class="v" d="M395.234 303.408l-8.155.668-1.07-12.433a4.047 4.047 0 018.022-1.07v.4c.535 3.745.802 8.157 1.203 12.435z"/><path class="w" d="M391.357 348.196h-34.092c1.07-13.77 3.21-43.985.8-57.622a3.36 3.36 0 012.808-3.877h28.878a3.57 3.57 0 013.342 2.54c3.072 12.3-1.736 58.96-1.736 58.96z"/><path class="t" d="M383.33 345.788c2.94.535 6.685 3.075 6.016 5.214-.535 1.738-3.075 1.47-4.813 1.47h-4.947a13.85 13.85 0 01-7.888-2.54c-26.734-17.247-26.868-21.658-26.868-23.398-.134-5.48 8.7-27.407 12.567-36.632a4.16 4.16 0 015.481-1.872 4.017 4.017 0 012.005 4.947c-5.348 12.968-11.23 28.6-11.9 32.755 3.476 2.54 11.5 14.038 21.525 19.52 4.815 2.408 5.75.002 8.822.536z"/><path class="v" d="M364.885 292.846l-4.813 11.9-7.62-2.808 4.947-12.166a4.054 4.054 0 017.488 3.075z"/><path class="t" d="M383.335 286.562c.8 4.145-1.872 6.55-6.685 5.615a20.01 20.01 0 01-9.76-5.615z"/><path class="w" d="M365.287 293.113l-4.412 10.83-8.423-3.075 4.546-11.1a4.44 4.44 0 015.616-2.808 4.44 4.44 0 012.807 5.616c0 .134-.134.267-.134.535z"/><path class="v" d="M381.468 279.476a16.408 16.408 0 00-1.337 7.62 5.69 5.69 0 01-1.471-.267 14.527 14.527 0 01-7.888-4.412 36.36 36.36 0 011.738-6.551 4.88 4.88 0 119.492 2.273 4 4 0 00-.535 1.337z"/><path class="w" d="M386.01 291.776c.535 3.743 1.07 7.754 1.47 11.63l8.824-.936c-.535-4.68-1.2-8.824-1.6-11.9a4.48 4.48 0 00-5.348-3.476 4.113 4.113 0 00-3.342 4.68z"/><path class="t" d="M394.03 273.594c-3.075 7.62-9.09 14.44-17.246 11.9s-13.5-9.893-11.765-18.182a15.23 15.23 0 0118.049-11.765c8.422 1.87 14.168 10.16 10.962 18.047z"/><path class="s" d="M373.442 260.76c-3.075-1.47-2.94-4.01 0-5.48l1.738-.668c3.21-1.47 11.364-2.94 19.787 3.21l.668.4a4.2 4.2 0 011.872 5.481 4.134 4.134 0 01-2.273 2.005 12.59 12.59 0 01-5.48.134 64.14 64.14 0 01-16.311-5.08z"/><path class="s" d="M373.71 262.096a3.92 3.92 0 01-3.342-4.412 4.077 4.077 0 011.07-2.14l.267-.267c2.273-2.14 11.1-5.08 20.455-2.005l2.273.8c3.21 1.2 2.94 4.278.134 6.284a10.526 10.526 0 01-4.813 1.738 53.794 53.794 0 01-16.044.001z"/><path class="s" d="M372.373 259.556a2.343 2.343 0 01-2.808-1.738 2.644 2.644 0 01.134-1.47v-.134c.8-1.738 5.348-5.48 11.364-5.75h1.47c2.14 0 2.674 1.738 1.47 3.476a9.208 9.208 0 01-2.406 2.14 45.202 45.202 0 01-9.226 3.477z"/><path class="s" d="M370.768 259.823a1.344 1.344 0 00-.134-2.005c-.202-.235-.5-.38-.8-.4h-.134a8.808 8.808 0 00-6.284 4.278l-.4.8c-.668 1.07.134 2.005 1.47 1.738a3.94 3.94 0 001.738-.668 24.19 24.19 0 004.543-3.743z"/><path class="s" d="M371.17 260.76a1.73 1.73 0 00-1.07-2.273 1.98 1.98 0 00-.936-.134h-.134a11.09 11.09 0 00-5.615 7.086c0 .134-.134.535-.267 1.07-.267 1.47.936 2.14 2.273 1.47a4.665 4.665 0 001.738-1.47 21.152 21.152 0 004.01-5.75z"/><path class="s" d="M375.848 258.353c7.353 2.54-.4 12.7-7.086 14.573-4.145 1.2-4.947-2.94-3.877-8.022s2.273-9.49 10.963-6.55z"/><path class="q" d="M449.647 320.52a1.698 1.698 0 00-1.47-.8h-40.9a1.837 1.837 0 00-2.096 2.423c.226.626.772 1.08 1.428 1.187l-10.16 28.074h-.668a1.87 1.87 0 00-1.657 2.82 1.87 1.87 0 001.657.923h40.9c.785.042 1.5-.45 1.738-1.2l11.364-31.552a1.83 1.83 0 00-.134-1.875z"/><path class="L" d="M395.768 355.018H369.03c-1.017-.024-1.83-.855-1.83-1.872s.812-1.848 1.83-1.87h25.4l11.1-30.348a1.777 1.777 0 013.05-.576c.412.497.524 1.176.29 1.778l-11.5 31.55a1.482 1.482 0 01-1.604 1.34z"/><path class="t" d="M363.816 271.588a6.055 6.055 0 001.6 4.947 2.5 2.5 0 003.476 0c.4-.332.643-.817.668-1.337l.668-5.615a2.52 2.52 0 00-2.273-2.674c-.458.01-.9.1-1.337.267a6.29 6.29 0 00-2.802 4.412z"/><path d="M372.64 305.145a3.14 3.14 0 013.075-2.674h.4a3.184 3.184 0 013.877-2.14c.73.206 1.352.685 1.738 1.337a3.184 3.184 0 014.412.8c.233.373.413.777.535 1.2a3.15 3.15 0 01-.267 6.284h-13.77a2.448 2.448 0 01-2.138-2.808 3.22 3.22 0 012.139-2z" fill="#fafeff"/><path d="M414.218 428.143c-7.62-42.648-7.22-59.226-7.086-61.766-12.968-4.546-36.766-4.947-43.85-4.947a3.067 3.067 0 01-3.075-2.808l-.8-11.23h.936l.8 11.23a2.17 2.17 0 002.139 2.005c7.086 0 31.284.535 44.386 5.214l.267.134v.4c0 .134-1.337 15.642 7.086 62.034z" fill="#394e6b"/><path d="M386 273.192c-.134 2.005.535 3.877.134 5.882a.288.288 0 01-.267.267 3.5 3.5 0 01-2.808-.535c-.134-.134 0-.267.134-.267.668 0 1.47.4 2.005.267.668-.267.4-1.6.4-2.14a15.43 15.43 0 01-.134-3.476c.134-.4.535-.267.535 0zm-6.82 5.883a6.72 6.72 0 005.348 2.808.287.287 0 01.134.535c-2.005.936-4.947-1.2-5.883-3.075-.134-.267.267-.4.4-.267zm2.556-7.755v-.267c.134-1.07 1.872-.668 1.47.267a1.04 1.04 0 01-1.2.8.823.823 0 01.134-1.599 3.56 3.56 0 00-.668.8c0 .134.134.267.134.4l.134.134a2.61 2.61 0 001.07-.134.81.81 0 01-1.07.134c-.267-.267-.535-.668-.267-1.07a.85.85 0 011.6.4.75.75 0 01-.668.8c.134-.535.134-1.07.267-1.47h.134a.49.49 0 01-.4-.134h.134c-.134 0-.267.134-.4.134h.134l-.267.267v-.134l.4 1.07c-.535.134-.67-.134-.67-.4zm7.214 2.943c.14.147.234.334.267.535a.576.576 0 01-.535.535 1.01 1.01 0 01-.535-.267 1.2 1.2 0 01-.134-.668c0-.267.267-.4.535-.535h.134a.716.716 0 01.937.667.86.86 0 01-.8.8h-.4c.267-.134.4-.267.668-.4-.134-.134-.267-.4-.535-.535h-.134c-.134.134-.4.267-.535.4.267-.668.8-.8 1.07-.535z" fill="#243055"/><path d="M391.1 272.66l-1.6-.8a.9.9 0 11.8-1.6 11.15 11.15 0 011.6 1.07.78.78 0 01.213 1.035.78.78 0 01-1.013.302zm-7.354-2.943a6.574 6.574 0 01-2.674-.668.77.77 0 01.267-1.337 4.7 4.7 0 012.674.4c1.2.134.8 1.738-.267 1.6z" fill="#313b64"/></svg>