<svg width="40" height="40" fill="none" xmlns="http://www.w3.org/2000/svg"><rect width="40" height="40" rx="20" fill="#E6F8F5"/><path d="M12 15a2 2 0 012-2h12a2 2 0 012 2v3.146a4.507 4.507 0 00-1-.678V15a1 1 0 00-1-1H14a1 1 0 00-1 1v8a1 1 0 001 1h7.258c.076.113.157.223.242.329V25H14a2 2 0 01-2-2v-8zm16.5 6.5c0 .954-.381 1.818-1 2.45V28a.5.5 0 01-.8.4l-1.4-1.05a.5.5 0 00-.6 0l-1.4 1.05a.5.5 0 01-.8-.4v-4.05a3.5 3.5 0 116-2.45zM25 25c-.537 0-1.045-.12-1.5-.337v2.087l1.243-.746a.5.5 0 01.514 0l1.243.746v-2.087A3.486 3.486 0 0125 25zm0-1a2.5 2.5 0 100-5 2.5 2.5 0 000 5zm-10-7.5a.5.5 0 01.5-.5h9a.5.5 0 010 1h-9a.5.5 0 01-.5-.5zm.5 4.5a.5.5 0 000 1h4a.5.5 0 000-1h-4z" fill="#4F6470"/></svg>