<?xml version="1.0" encoding="utf-8"?>
<svg width="155" height="60" fill="none" xmlns="http://www.w3.org/2000/svg">
  <g clip-path="url(#clip0_9500_3391)">
    <path d="M140.2 50H14.73A4.74 4.74 0 0110 45.27V14.73c0-2.61 2.12-4.73 4.73-4.73H140.2c2.61 0 4.8 2.12 4.8 4.73v30.54c0 2.61-2.2 4.73-4.8 4.73z" fill="#9AA6AD"/>
    <path d="M144.03 45.27c0 2.12-1.71 3.83-3.83 3.83H14.73c-2.12 0-3.84-1.71-3.84-3.83V14.72c0-2.11 1.72-3.83 3.84-3.83H140.2c2.12 0 3.83 1.72 3.83 3.84v30.54z" fill="#021A29"/>
  </g>
  <defs>
    <clipPath id="clip0_9500_3391">
      <path fill="#fff" transform="translate(10 10)" d="M0 0h135v40H0z"/>
    </clipPath>
  </defs>
  <text style="font-size: 36; font-family: Roboto; white-space: pre;" x="-423.977" y="47.703">/home/sesh/Code/Web_Dev/footballcouch/mysaina2/store/static/images/</text>
  <path d="M 139.881 50.21 L 14.881 50.21 C 12.081 50.21 9.881 48.01 9.881 45.21 L 9.881 15.21 C 9.881 12.41 12.081 10.21 14.881 10.21 L 139.881 10.21 C 142.681 10.21 144.881 12.41 144.881 15.21 L 144.881 45.21 C 144.881 48.01 142.681 50.21 139.881 50.21 Z"/>
  <path class="st0" d="M 139.881 11.01 C 142.181 11.01 144.081 12.91 144.081 15.21 L 144.081 45.21 C 144.081 47.51 142.181 49.41 139.881 49.41 L 14.881 49.41 C 12.581 49.41 10.681 47.51 10.681 45.21 L 10.681 15.21 C 10.681 12.91 12.581 11.01 14.881 11.01 L 139.881 11.01 M 139.881 10.21 L 14.881 10.21 C 12.081 10.21 9.881 12.51 9.881 15.21 L 9.881 45.21 C 9.881 48.01 12.081 50.21 14.881 50.21 L 139.881 50.21 C 142.681 50.21 144.881 48.01 144.881 45.21 L 144.881 15.21 C 144.881 12.51 142.681 10.21 139.881 10.21 Z" style="fill: rgb(166, 166, 166);"/>
  <path class="st1" d="M 57.281 20.41 C 57.281 21.21 57.081 21.91 56.581 22.41 C 55.981 23.01 55.281 23.31 54.381 23.31 C 53.481 23.31 52.781 23.01 52.181 22.41 C 51.581 21.81 51.281 21.11 51.281 20.21 C 51.281 19.31 51.581 18.61 52.181 18.01 C 52.781 17.41 53.481 17.11 54.381 17.11 C 54.781 17.11 55.181 17.21 55.581 17.41 C 55.981 17.61 56.281 17.81 56.481 18.11 L 55.981 18.61 C 55.581 18.11 55.081 17.91 54.381 17.91 C 53.781 17.91 53.181 18.11 52.781 18.61 C 52.281 19.01 52.081 19.61 52.081 20.31 C 52.081 21.01 52.281 21.61 52.781 22.01 C 53.281 22.41 53.781 22.71 54.381 22.71 C 55.081 22.71 55.581 22.51 56.081 22.01 C 56.381 21.71 56.581 21.31 56.581 20.81 L 54.381 20.81 L 54.381 20.01 L 57.281 20.01 L 57.281 20.41 Z M 61.881 17.91 L 59.181 17.91 L 59.181 19.81 L 61.681 19.81 L 61.681 20.51 L 59.181 20.51 L 59.181 22.41 L 61.881 22.41 L 61.881 23.21 L 58.381 23.21 L 58.381 17.21 L 61.881 17.21 L 61.881 17.91 Z M 65.181 23.21 L 64.381 23.21 L 64.381 17.91 L 62.681 17.91 L 62.681 17.21 L 66.881 17.21 L 66.881 17.91 L 65.181 17.91 L 65.181 23.21 Z M 69.781 23.21 L 69.781 17.21 L 70.581 17.21 L 70.581 23.21 L 69.781 23.21 Z M 73.981 23.21 L 73.181 23.21 L 73.181 17.91 L 71.481 17.91 L 71.481 17.21 L 75.581 17.21 L 75.581 17.91 L 73.881 17.91 L 73.881 23.21 L 73.981 23.21 Z M 83.481 22.41 C 82.881 23.01 82.181 23.31 81.281 23.31 C 80.381 23.31 79.681 23.01 79.081 22.41 C 78.481 21.81 78.181 21.11 78.181 20.21 C 78.181 19.31 78.481 18.61 79.081 18.01 C 79.681 17.41 80.381 17.11 81.281 17.11 C 82.181 17.11 82.881 17.41 83.481 18.01 C 84.081 18.61 84.381 19.31 84.381 20.21 C 84.381 21.11 84.081 21.81 83.481 22.41 Z M 79.681 21.91 C 80.081 22.31 80.681 22.61 81.281 22.61 C 81.881 22.61 82.481 22.41 82.881 21.91 C 83.281 21.51 83.581 20.91 83.581 20.21 C 83.581 19.51 83.381 18.91 82.881 18.51 C 82.481 18.11 81.881 17.81 81.281 17.81 C 80.681 17.81 80.081 18.01 79.681 18.51 C 79.281 18.91 78.981 19.51 78.981 20.21 C 78.981 20.91 79.181 21.51 79.681 21.91 Z M 85.481 23.21 L 85.481 17.21 L 86.381 17.21 L 89.281 21.91 L 89.281 17.21 L 90.081 17.21 L 90.081 23.21 L 89.281 23.21 L 86.181 18.31 L 86.181 23.21 L 85.481 23.21 Z" style="fill: rgb(255, 255, 255); stroke: rgb(255, 255, 255); stroke-miterlimit: 10; stroke-width: 0.2px;"/>
  <path class="st2" d="M 77.981 32.01 C 75.581 32.01 73.681 33.81 73.681 36.31 C 73.681 38.71 75.581 40.61 77.981 40.61 C 80.381 40.61 82.281 38.81 82.281 36.31 C 82.281 33.71 80.381 32.01 77.981 32.01 Z M 77.981 38.81 C 76.681 38.81 75.581 37.71 75.581 36.21 C 75.581 34.71 76.681 33.61 77.981 33.61 C 79.281 33.61 80.381 34.61 80.381 36.21 C 80.381 37.71 79.281 38.81 77.981 38.81 Z M 68.681 32.01 C 66.281 32.01 64.381 33.81 64.381 36.31 C 64.381 38.71 66.281 40.61 68.681 40.61 C 71.081 40.61 72.981 38.81 72.981 36.31 C 72.981 33.71 71.081 32.01 68.681 32.01 Z M 68.681 38.81 C 67.381 38.81 66.281 37.71 66.281 36.21 C 66.281 34.71 67.381 33.61 68.681 33.61 C 69.981 33.61 71.081 34.61 71.081 36.21 C 71.081 37.71 69.981 38.81 68.681 38.81 Z M 57.581 33.31 L 57.581 35.11 L 61.881 35.11 C 61.781 36.11 61.381 36.91 60.881 37.41 C 60.281 38.01 59.281 38.71 57.581 38.71 C 54.881 38.71 52.881 36.61 52.881 33.91 C 52.881 31.21 54.981 29.11 57.581 29.11 C 58.981 29.11 60.081 29.71 60.881 30.41 L 62.181 29.11 C 61.081 28.11 59.681 27.31 57.681 27.31 C 54.081 27.31 50.981 30.31 50.981 33.91 C 50.981 37.51 54.081 40.51 57.681 40.51 C 59.681 40.51 61.081 39.91 62.281 38.61 C 63.481 37.41 63.881 35.71 63.881 34.41 C 63.881 34.01 63.881 33.61 63.781 33.31 L 57.581 33.31 Z M 102.981 34.71 C 102.581 33.71 101.581 32.01 99.381 32.01 C 97.181 32.01 95.381 33.71 95.381 36.31 C 95.381 38.71 97.181 40.61 99.581 40.61 C 101.481 40.61 102.681 39.41 103.081 38.71 L 101.681 37.71 C 101.181 38.41 100.581 38.91 99.581 38.91 C 98.581 38.91 97.981 38.51 97.481 37.61 L 103.181 35.21 L 102.981 34.71 Z M 97.181 36.11 C 97.181 34.51 98.481 33.61 99.381 33.61 C 100.081 33.61 100.781 34.01 100.981 34.51 L 97.181 36.11 Z M 92.481 40.21 L 94.381 40.21 L 94.381 27.71 L 92.481 27.71 L 92.481 40.21 Z M 89.481 32.91 C 88.981 32.41 88.181 31.91 87.181 31.91 C 85.081 31.91 83.081 33.81 83.081 36.21 C 83.081 38.61 84.981 40.41 87.181 40.41 C 88.181 40.41 88.981 39.91 89.381 39.41 L 89.481 39.41 L 89.481 40.01 C 89.481 41.61 88.581 42.51 87.181 42.51 C 86.081 42.51 85.281 41.71 85.081 41.01 L 83.481 41.71 C 83.981 42.81 85.181 44.21 87.281 44.21 C 89.481 44.21 91.281 42.91 91.281 39.81 L 91.281 32.21 L 89.481 32.21 L 89.481 32.91 Z M 87.281 38.81 C 85.981 38.81 84.881 37.71 84.881 36.21 C 84.881 34.71 85.981 33.61 87.281 33.61 C 88.581 33.61 89.581 34.71 89.581 36.21 C 89.581 37.71 88.581 38.81 87.281 38.81 Z M 111.681 27.71 L 107.181 27.71 L 107.181 40.21 L 109.081 40.21 L 109.081 35.51 L 111.681 35.51 C 113.781 35.51 115.781 34.01 115.781 31.61 C 115.781 29.21 113.781 27.71 111.681 27.71 Z M 111.781 33.71 L 109.081 33.71 L 109.081 29.41 L 111.781 29.41 C 113.181 29.41 113.981 30.61 113.981 31.51 C 113.881 32.61 113.081 33.71 111.781 33.71 Z M 123.281 31.91 C 121.881 31.91 120.481 32.51 119.981 33.81 L 121.681 34.51 C 122.081 33.81 122.681 33.61 123.381 33.61 C 124.381 33.61 125.281 34.21 125.381 35.21 L 125.381 35.31 C 125.081 35.11 124.281 34.81 123.481 34.81 C 121.681 34.81 119.881 35.81 119.881 37.61 C 119.881 39.31 121.381 40.41 122.981 40.41 C 124.281 40.41 124.881 39.81 125.381 39.21 L 125.481 39.21 L 125.481 40.21 L 127.281 40.21 L 127.281 35.41 C 127.081 33.21 125.381 31.91 123.281 31.91 Z M 123.081 38.81 C 122.481 38.81 121.581 38.51 121.581 37.71 C 121.581 36.71 122.681 36.41 123.581 36.41 C 124.381 36.41 124.781 36.61 125.281 36.81 C 125.081 38.01 124.081 38.81 123.081 38.81 Z M 133.581 32.21 L 131.481 37.61 L 131.381 37.61 L 129.181 32.21 L 127.181 32.21 L 130.481 39.81 L 128.581 44.01 L 130.481 44.01 L 135.581 32.21 L 133.581 32.21 Z M 116.781 40.21 L 118.681 40.21 L 118.681 27.71 L 116.781 27.71 L 116.781 40.21 Z" style="fill: rgb(255, 255, 255);"/>
  <g transform="matrix(1, 0, 0, 1, 9.8812, 10.209559)">
    <linearGradient id="SVGID_1_" gradientUnits="userSpaceOnUse" x1="21.8" y1="33.29" x2="5.017" y2="16.508" gradientTransform="matrix(1 0 0 -1 0 42)">
      <stop offset="0" stop-color="#00a0ff"/>
      <stop offset="0.007" stop-color="#00a1ff"/>
      <stop offset="0.26" stop-color="#00beff"/>
      <stop offset="0.512" stop-color="#00d2ff"/>
      <stop offset="0.76" stop-color="#00dfff"/>
      <stop offset="1" stop-color="#00e3ff"/>
    </linearGradient>
    <path class="st3" d="M10.4 7.5c-.3.3-.4.8-.4 1.4V31c0 .6.2 1.1.5 1.4l.1.1L23 20.1v-.2L10.4 7.5z" style="fill: url('#SVGID_1_');"/>
    <linearGradient id="SVGID_2_" gradientUnits="userSpaceOnUse" x1="33.834" y1="21.999" x2="9.637" y2="21.999" gradientTransform="matrix(1 0 0 -1 0 42)">
      <stop offset="0" stop-color="#ffe000"/>
      <stop offset="0.409" stop-color="#ffbd00"/>
      <stop offset="0.775" stop-color="orange"/>
      <stop offset="1" stop-color="#ff9c00"/>
    </linearGradient>
    <path class="st4" d="M27 24.3l-4.1-4.1V19.9l4.1-4.1.1.1 4.9 2.8c1.4.8 1.4 2.1 0 2.9l-5 2.7z" style="fill: url('#SVGID_2_');"/>
    <linearGradient id="SVGID_3_" gradientUnits="userSpaceOnUse" x1="24.827" y1="19.704" x2="2.069" y2="-3.054" gradientTransform="matrix(1 0 0 -1 0 42)">
      <stop offset="0" stop-color="#ff3a44"/>
      <stop offset="1" stop-color="#c31162"/>
    </linearGradient>
    <path class="st5" d="M27.1 24.2L22.9 20 10.4 32.5c.5.5 1.2.5 2.1.1l14.6-8.4" style="fill: url('#SVGID_3_');"/>
    <linearGradient id="SVGID_4_" gradientUnits="userSpaceOnUse" x1="7.297" y1="41.824" x2="17.46" y2="31.661" gradientTransform="matrix(1 0 0 -1 0 42)">
      <stop offset="0" stop-color="#32a071"/>
      <stop offset="0.069" stop-color="#2da771"/>
      <stop offset="0.476" stop-color="#15cf74"/>
      <stop offset="0.801" stop-color="#06e775"/>
      <stop offset="1" stop-color="#00f076"/>
    </linearGradient>
    <path class="st6" d="M27.1 15.8L12.5 7.5c-.9-.5-1.6-.4-2.1.1L22.9 20l4.2-4.2z" style="fill: url('#SVGID_4_');"/>
    <path class="st7" d="M27 24.1l-14.5 8.2c-.8.5-1.5.4-2 0l-.1.1.1.1c.5.4 1.2.5 2 0L27 24.1z" style="opacity: 0.2;"/>
    <path class="st8" d="M10.4 32.3c-.3-.3-.4-.8-.4-1.4v.1c0 .6.2 1.1.5 1.4v-.1h-.1zM32 21.3l-5 2.8.1.1 4.9-2.8c.7-.4 1-.9 1-1.4 0 .5-.4.9-1 1.3z" style="opacity: 0.12;"/>
    <path class="st9" d="M12.5 7.6L32 18.7c.6.4 1 .8 1 1.3 0-.5-.3-1-1-1.4L12.5 7.5c-1.4-.8-2.5-.2-2.5 1.4V9c0-1.5 1.1-2.2 2.5-1.4z" style="fill: rgb(255, 255, 255); opacity: 0.25;"/>
  </g>
</svg>