<svg xmlns="http://www.w3.org/2000/svg" width="100" height="100"><defs><linearGradient id="b" x1=".692" y1=".518" x2="-.239" y2=".518" gradientUnits="objectBoundingBox"><stop offset="0" stop-color="#cdbfba"/><stop offset="1" stop-color="#766e6e"/></linearGradient><linearGradient id="c" x1=".47" y1=".518" x2="-.074" y2=".518" gradientUnits="objectBoundingBox"><stop offset="0" stop-color="#9e9797"/><stop offset="1" stop-color="#5b5555"/></linearGradient><linearGradient id="d" x1=".997" y1="1.504" x2=".636" y2="1.504" gradientUnits="objectBoundingBox"><stop offset="0" stop-color="#01d0fb"/><stop offset=".608" stop-color="#26a6fe"/><stop offset="1" stop-color="#0182fc"/></linearGradient><linearGradient id="f" x1="1.003" y1="-1.072" x2=".002" y2="-1.072" gradientUnits="objectBoundingBox"><stop offset="0" stop-color="#fe99a0"/><stop offset=".593" stop-color="#fe646f"/><stop offset="1" stop-color="#e41f2d"/></linearGradient><linearGradient id="g" x1=".999" y1="-1.072" x2="-.001" y2="-1.072" gradientUnits="objectBoundingBox"><stop offset="0" stop-color="#fe646f"/><stop offset=".704" stop-color="#e41f2d"/><stop offset="1" stop-color="#c41926"/></linearGradient><linearGradient id="h" x1="1.001" y1="-2.384" x2=".001" y2="-2.384" gradientUnits="objectBoundingBox"><stop offset="0" stop-color="#fff9df"/><stop offset=".593" stop-color="#ffe177"/><stop offset="1" stop-color="#feb137"/></linearGradient><clipPath id="a"><path data-name="Rectangle 3938" d="M0 0h100v100H0z"/></clipPath><clipPath id="e"><path data-name="Rectangle 3939" d="M0 0h52v52H0z"/></clipPath></defs><g data-name="Group 3394"><g data-name="Group 3393" clip-path="url(#a)"><path data-name="Path 12389" d="M55.632 0a4.557 4.557 0 014.375 4.643V89.2a1.7 1.7 0 001.7 1.7 1.756 1.756 0 001.7-1.7v-4.29a4.554 4.554 0 119.107-.089V89.2a10.8 10.8 0 01-21.607 0V4.553A4.557 4.557 0 0155.632 0z" transform="translate(-5.454)" fill="url(#b)"/><path data-name="Path 12390" d="M55.632 0a4.326 4.326 0 012.411.8 4.4 4.4 0 00-1.875 3.661v40.271a11.467 11.467 0 003.839-.893V55a11.467 11.467 0 01-3.839.893v33.214a10.727 10.727 0 008.214 10.446A7.042 7.042 0 0161.7 100a10.784 10.784 0 01-10.8-10.8V4.553A4.557 4.557 0 0155.632 0z" transform="translate(-5.454)" fill="url(#c)"/><path data-name="Path 12391" d="M2.681 44.821C8.217 23.393 28.842 7.5 50.27 7.5a49.731 49.731 0 0148.215 37.321 3.824 3.824 0 01-5.179 4.464 14.671 14.671 0 00-5.357-.982 14.328 14.328 0 00-7.049 1.876 11.129 11.129 0 01-5.536 1.429 11.712 11.712 0 01-5.536-1.875 14.2 14.2 0 00-14.107 0 11.137 11.137 0 01-11.071 0 14.2 14.2 0 00-14.107 0 11.137 11.137 0 01-11.071 0 14.328 14.328 0 00-7.054-1.875 15.4 15.4 0 00-5.357.982c-2.773 1.249-5.183-.983-4.38-4.019z" transform="translate(-.27 -.804)" fill="url(#d)"/></g></g><g data-name="Group 3396"><g data-name="Group 3395" clip-path="url(#e)" transform="translate(6 48)"><path data-name="Path 12392" d="M29 73.2l2.2 2.2a1.215 1.215 0 001.6 0l2.2-2.2a13.506 13.506 0 1119.1 19.1L36 110.4a5.553 5.553 0 01-7.9 0L10 92.3a13.47 13.47 0 0119-19.1z" transform="translate(-6 -60)" fill="url(#f)"/><path data-name="Path 12393" d="M10 73.2a13.488 13.488 0 0111.6-3.8 13.494 13.494 0 00-8.7 21.5 1.613 1.613 0 01.9-.3h1.7a2.674 2.674 0 012.5 1.8l1.3 3.5c.2.6.6.9 1.1.8a1.071 1.071 0 001-1L25.1 83a2.69 2.69 0 015.2 0l4.5 15.3 3.1-10.4a4.473 4.473 0 018.6-.3l.7 1.9a1.839 1.839 0 001.7 1.2 1.752 1.752 0 011.7 1.7 1.752 1.752 0 01-1.7 1.7h-1.7a2.674 2.674 0 01-2.5-1.8l-1.3-3.5c-.2-.6-.6-.9-1.1-.8a1.071 1.071 0 00-1 1l-3.7 12.7a2.69 2.69 0 01-5.2 0l-4.5-15.3-3.1 10.4a4.812 4.812 0 01-3 3.2l10.4 10.4a5.863 5.863 0 001.9 1.3 5.442 5.442 0 01-6-1.3L10 92.3a13.46 13.46 0 010-19.1z" transform="translate(-6 -60)" fill="url(#g)"/><path data-name="Path 12394" d="M12.7 89.6a1.752 1.752 0 011.7-1.7h1.7a2.674 2.674 0 012.5 1.8l1.3 3.5c.2.6.6.9 1.1.8a1.071 1.071 0 001-1l3.7-12.7a2.69 2.69 0 015.2 0l4.5 15.3 3.1-10.4a4.473 4.473 0 018.6-.3l.7 1.9a1.839 1.839 0 001.7 1.2 1.752 1.752 0 011.7 1.7 1.752 1.752 0 01-1.7 1.7h-1.7a2.674 2.674 0 01-2.5-1.8L44 86c-.2-.6-.6-.9-1.1-.8a1.071 1.071 0 00-1 1l-3.7 12.7a2.69 2.69 0 01-5.2 0l-4.5-15.3L25.4 94a4.473 4.473 0 01-8.6.3l-.7-1.9a1.839 1.839 0 00-1.7-1.2 1.6 1.6 0 01-1.7-1.6z" transform="translate(-6 -60)" fill="url(#h)"/></g></g></svg>