<?xml version="1.0" encoding="utf-8"?>
<svg width="234" height="56" fill="none" xmlns="http://www.w3.org/2000/svg" xmlns:xlink="http://www.w3.org/1999/xlink">
  <defs>
    <path id="path-1" style="fill: none;" d="M 74.148 9.421 C 162.066 9.421 186.141 10.018 209.839 10.018 L 213.715 10.316 C 218.388 10.316 223.06 10.316 227.732 10.316"/>
  </defs>
  <path d="M 92.739 18.601 C 87.582 13.726 84.005 6.798 74.023 7.737 C 70.128 8.103 66.847 10.195 63.604 11.916 C 54.022 16.999 43.786 22.702 34.796 27.461 C 37.995 31.308 41.261 35.081 44.886 38.494 C 54.652 33.172 65.029 26.987 75.161 21.444 C 80.196 18.689 86.464 16.079 92.739 18.601 Z M 64.743 12.918 L 69.628 10.197 L 77.067 18.341 L 72.086 20.974 L 64.743 12.918 Z" style="fill: rgb(8, 186, 158);"/>
  <path d="M 85.413 18.937 C 81.266 19.309 77.852 21.406 74.509 23.282 C 64.491 28.901 54.658 34.355 45.21 39.998 L 45.21 48.188 C 48.945 46.293 52.782 44.191 56.605 42.004 C 60.386 39.84 64.071 37.267 68.161 35.653 C 68.874 44.947 74.657 50.358 83.949 49.528 C 92.375 48.77 100.247 41.702 100.877 33.144 C 101.559 23.916 94.465 18.119 85.413 18.935 L 85.413 18.937 Z" style="fill: rgb(8, 186, 158);"/>
  <path d="M 34.956 36.153 L 38.539 33.981 L 34.794 30.138 L 34.956 36.153 Z" style="fill: rgb(8, 186, 158);"/>
  <path d="M 39.189 35.149 L 35.164 37.375 L 43.422 46.221 L 43.538 39.496 C 42.074 38.103 39.189 35.149 39.189 35.149 Z" style="fill: rgb(8, 186, 158);"/>
  <path d="M 65.557 38.326 C 66.061 39.262 67.197 40.428 67.835 40.666 C 67.377 39.856 67.313 38.64 67.185 37.489 C 66.517 37.641 66.055 38.001 65.557 38.326 Z" style="fill: rgb(8, 186, 158);"/>
  <path d="M 69.332 12.074 L 67.109 13.312 L 72.398 19.115 L 74.669 17.915 L 69.332 12.074 Z" style="fill: rgb(8, 186, 158);"/>
  <text style="fill: rgb(0, 0, 0); font-family: Arial, sans-serif; font-size: 28px; white-space: pre;" transform="matrix(0.92991, 0, 0, 0.92991, 42.430309, 15.824768)"><textPath xlink:href="#path-1"><tspan>Football</tspan><tspan x="0" dy="1em">​</tspan><tspan>Coaching</tspan></textPath></text>
</svg>