<?xml version="1.0" encoding="utf-8"?>
<svg width="40" height="40" fill="none" xmlns="http://www.w3.org/2000/svg">
  <rect width="40" height="40" rx="8" fill="#08B89D"/>
  <path d="M 31.028 15.061 C 28.586 12.753 26.892 9.473 22.165 9.916 C 20.321 10.09 18.766 11.082 17.232 11.895 C 12.694 14.303 7.847 17.004 3.59 19.257 C 5.103 21.078 6.651 22.867 8.369 24.481 C 12.993 21.962 17.906 19.032 22.705 16.407 C 25.088 15.104 28.057 13.867 31.028 15.061 Z M 17.771 12.37 L 20.084 11.082 L 23.607 14.939 L 21.247 16.185 L 17.771 12.37 Z" style="fill: rgb(255, 255, 255);"/>
  <path d="M 27.559 15.22 C 25.596 15.398 23.978 16.39 22.395 17.278 C 17.652 19.939 12.995 22.521 8.521 25.193 L 8.521 29.072 C 10.291 28.174 12.108 27.179 13.916 26.144 C 15.709 25.12 17.453 23.901 19.39 23.136 C 19.726 27.537 22.465 30.1 26.866 29.706 C 30.856 29.349 34.582 26 34.882 21.949 C 35.206 17.579 31.846 14.834 27.559 15.22 Z" style="fill: rgb(255, 255, 255);"/>
  <path d="M 3.666 23.373 L 5.362 22.343 L 3.589 20.523 L 3.666 23.373 Z" style="fill: rgb(255, 255, 255);"/>
  <path d="M 5.67 22.898 L 3.765 23.952 L 7.673 28.141 L 7.729 24.956 C 7.037 24.298 5.67 22.898 5.67 22.898 Z" style="fill: rgb(255, 255, 255);"/>
  <path d="M 18.156 24.401 C 18.395 24.844 18.933 25.398 19.235 25.51 C 19.017 25.127 18.987 24.55 18.927 24.007 C 18.612 24.078 18.392 24.249 18.156 24.401 Z" style="fill: rgb(255, 255, 255);"/>
  <path d="M 19.944 11.97 L 18.891 12.557 L 21.395 15.306 L 22.472 14.736 L 19.944 11.97 Z" style="fill: rgb(255, 255, 255);"/>
</svg>