<svg width="16" height="17" fill="none" xmlns="http://www.w3.org/2000/svg"><path d="M14.487 1.443c-.854-.478-1.943-.59-2.984-.327-.507.129-.94.457-1.2.91l-.898 1.567a2.5 2.5 0 00.829 3.354l.79.501c.327.208.447.524.372.776-.268.897-.861 1.894-1.513 2.576-.194.203-.55.252-.898.048l-.437-.255a2.5 2.5 0 00-3.44.938l-.804 1.436a1.838 1.838 0 00-.12 1.535c.37 1.003 1.085 1.812 1.964 2.217.893.412 1.938.395 2.884-.236 1.498-.999 3.303-2.679 4.938-5.481 1.656-2.84 2.074-5.257 2.026-7.058-.03-1.154-.64-2.015-1.509-2.501zm-9.192-.38a.5.5 0 01.486.874l-.384.213a8.5 8.5 0 00-4.33 6.585l-.031.314A.5.5 0 11.04 8.95l.031-.315a9.5 9.5 0 014.84-7.359l.383-.213zm1.172 2.68a.5.5 0 00-.686-.172l-.124.074a6.5 6.5 0 00-3.068 4.506l-.044.267a.5.5 0 00.986.164l.045-.267A5.5 5.5 0 016.17 4.503l.124-.075a.5.5 0 00.172-.685z" fill="#042F48"/></svg>