<?xml version="1.0" encoding="utf-8"?>
<svg width="153" height="48" fill="none" xmlns="http://www.w3.org/2000/svg" xmlns:xlink="http://www.w3.org/1999/xlink">
  <defs>
    <path id="path-0" style="fill: none;" d="M 74.148 9.421 C 162.066 9.421 186.141 10.018 209.839 10.018 L 213.715 10.316 C 218.388 10.316 223.06 10.316 227.732 10.316"/>
  </defs>
  <g fill="#010101" transform="matrix(0.042973, 0, 0, 0.044132, 0.908337, -2.750995)" style="">
    <path d="m1051.5 422.8c-93.59-86.16-158.51-208.59-339.65-191.99-70.691 6.4688-130.22 43.453-189.05 73.836-173.89 89.832-359.64 190.61-522.79 274.69 58.066 67.969 117.35 134.66 183.12 194.94 177.23-94.008 365.53-203.32 549.38-301.26 91.367-48.684 205.13-94.789 318.98-50.219zm-508.02-100.43 88.609-48.086 135.04 143.9-90.406 46.523z" style="fill: rgb(8, 186, 158);"/>
    <path d="m918.57 428.7c-75.254 6.6133-137.23 43.656-197.9 76.789-181.79 99.312-360.19 195.66-531.64 295.37v144.72c67.754-33.469 137.39-70.609 206.75-109.26 68.629-38.258 135.49-83.699 209.71-112.25 12.938 164.23 117.88 259.87 286.5 245.17 152.89-13.355 295.72-138.26 307.18-289.47 12.383-163.05-116.36-265.5-280.6-251.07z" style="fill: rgb(8, 186, 158);"/>
    <path d="m2.9531 732.93 64.992-38.391-67.945-67.93z" style="fill: rgb(8, 186, 158);"/>
    <path d="m79.754 715.2-73.055 39.324 149.86 156.3 2.125-118.84c-26.594-24.613-78.926-76.789-78.926-76.789z" style="fill: rgb(8, 186, 158);"/>
    <path d="m558.23 771.32c9.1445 16.523 29.785 37.129 41.352 41.352-8.3164-14.328-9.4805-35.797-11.809-56.137-12.105 2.6758-20.492 9.0508-29.543 14.785z" style="fill: rgb(8, 186, 158);"/>
    <path d="m626.73 307.43-40.344 21.898 96.023 102.55 41.188-21.203z" style="fill: rgb(8, 186, 158);"/>
  </g>
  <text style="fill: rgb(51, 51, 51); font-family: Arial, sans-serif; font-size: 28px; white-space: pre;" transform="matrix(0.64709, 0, 0, 0.64709, 17.485847, 14.152806)"><textPath xlink:href="#path-0">Football<tspan x="0" dy="1em">​</tspan>Coaching</textPath></text>
</svg>