<?xml version="1.0" encoding="utf-8"?>
<svg width="94" height="24" fill="none" xmlns="http://www.w3.org/2000/svg" xmlns:xlink="http://www.w3.org/1999/xlink">
  <defs>
    <path id="path-0" style="fill: none;" d="M -30.109 13.796 L 102.402 13.796 C 153.155 13.796 203.908 13.796 254.661 13.796"/>
    <path id="path-1" style="fill: none;" d="M 74.148 9.421 C 162.066 9.421 186.141 10.018 209.839 10.018 L 213.715 10.316 C 218.388 10.316 223.06 10.316 227.732 10.316"/>
  </defs>
  <path d="M 29.128 6.974 C 26.55 4.537 24.762 1.074 19.772 1.543 C 17.825 1.726 16.185 2.772 14.564 3.632 C 9.774 6.173 4.657 9.024 0.163 11.403 C 1.762 13.326 3.395 15.212 5.207 16.918 C 10.089 14.258 15.276 11.166 20.341 8.395 C 22.858 7.018 25.991 5.713 29.128 6.974 Z M 15.133 4.133 L 17.575 2.773 L 21.294 6.844 L 18.804 8.16 L 15.133 4.133 Z" style="fill: rgb(8, 186, 158);"/>
  <path d="M 25.466 7.142 C 23.393 7.328 21.686 8.376 20.015 9.314 C 15.007 12.123 10.092 14.849 5.369 17.67 L 5.369 21.764 C 7.236 20.817 9.154 19.766 11.065 18.673 C 12.955 17.591 14.797 16.305 16.842 15.498 C 17.198 20.144 20.089 22.849 24.734 22.434 C 28.946 22.055 32.881 18.522 33.196 14.244 C 33.537 9.631 29.991 6.733 25.466 7.141 L 25.466 7.142 Z" style="fill: rgb(8, 186, 158);"/>
  <path d="M 0.243 15.748 L 2.034 14.662 L 0.162 12.741 L 0.243 15.748 Z" style="fill: rgb(8, 186, 158);"/>
  <path d="M 2.359 15.246 L 0.347 16.359 L 4.475 20.781 L 4.533 17.419 C 3.801 16.723 2.359 15.246 2.359 15.246 Z" style="fill: rgb(8, 186, 158);"/>
  <path d="M 15.54 16.834 C 15.792 17.302 16.36 17.885 16.679 18.004 C 16.45 17.599 16.418 16.991 16.354 16.416 C 16.02 16.492 15.789 16.672 15.54 16.834 Z" style="fill: rgb(8, 186, 158);"/>
  <path d="M 17.427 3.711 L 16.316 4.33 L 18.96 7.231 L 20.095 6.631 L 17.427 3.711 Z" style="fill: rgb(8, 186, 158);"/>
  <text style="fill: rgb(8, 186, 158); font-family: Arial, sans-serif; font-size: 28px; white-space: pre;" transform="matrix(0.464851, 0, 0, 0.464851, 3.979852, 5.586473)"><textPath xlink:href="#path-1"><tspan>Football</tspan><tspan x="0" dy="1em">​</tspan><tspan>Coaching</tspan></textPath></text>
</svg>