<svg width="20" height="20" fill="none" xmlns="http://www.w3.org/2000/svg"><path d="M2.68.023C1.54.077.5 1.011.5 2.263v15.473c0 1.67 1.85 2.773 3.318 1.98l14.504-7.823c1.47-.793 1.47-2.992 0-3.785L3.818.283A2.166 2.166 0 002.68.023zm.347 1.58c.028.012.051-.014.078 0l9.579 5.168-2.207 2.175-7.45-7.342zM2 2.699L9.407 10 2 17.302V2.698zm12.065 4.818l3.545 1.912c.492.265.492.879 0 1.144l-3.545 1.912L11.545 10l2.52-2.484zm-3.588 3.538l2.207 2.175-9.579 5.168c-.027.014-.05-.012-.078 0l7.45-7.343z" fill="#07A68D"/></svg>