<svg width="155" height="60" fill="none" xmlns="http://www.w3.org/2000/svg"><path d="M140 10H15a5 5 0 00-5 5v30a5 5 0 005 5h125a5 5 0 005-5V15a5 5 0 00-5-5z" fill="#021A29"/><path d="M140 10.8a4.2 4.2 0 014.2 4.2v30a4.2 4.2 0 01-4.2 4.2H15a4.2 4.2 0 01-4.2-4.2V15a4.2 4.2 0 014.2-4.2h125zm0-.8H15c-2.75 0-5 2.25-5 5v30c0 2.75 2.25 5 5 5h125c2.75 0 5-2.25 5-5V15c0-2.75-2.25-5-5-5z" fill="#9AA6AD"/><g clip-path="url(#clip0_7035_40988)" fill="#08BA9E"><path d="M123.376 34.374c.875-.291 1.312-.88 1.312-1.769a4.285 4.285 0 00-.959-2.756c-.641-.799-1.733-1.427-3.139-1.832l-.368 1.51c1.872.545 2.846 1.522 2.925 2.933a.375.375 0 01-.255.434 8.778 8.778 0 01-2.042.153h-1.531l.38 1.56h1.161c1.183-.004 2.021-.082 2.516-.233zM106.966 27.803a.776.776 0 100-1.552.776.776 0 000 1.552zM104.761 27.803a.776.776 0 100-1.552.776.776 0 000 1.552z"/><path d="M103.955 34.349a2.68 2.68 0 003.029-.552 2.688 2.688 0 001.904.797h6.347a3.47 3.47 0 100-6.942h-1.483l3.775-2.12-.459-1.532-6.434 3.652.377 1.56h4.216a1.915 1.915 0 110 3.827h-6.339a1.127 1.127 0 01-1.123-1.128V28.85l-1.562.38v2.68a1.129 1.129 0 01-2.256.015v-3.062l-1.556.37v5.104a1.91 1.91 0 01-1.749 1.904l.355 1.457.36-.105a3.396 3.396 0 002.598-3.243zM75.599 28.246a.78.78 0 100-1.561.78.78 0 000 1.561z"/><path d="M77.508 34.586a2.69 2.69 0 002.68-2.685v-3.063l-1.562.38v2.683a1.128 1.128 0 01-2.256.003V28.84l-1.542.383V31.9a1.128 1.128 0 01-2.256.003v-5.768l-1.572.38v5.385a2.69 2.69 0 004.594 1.888 2.679 2.679 0 001.909.797h.005zM79.42 37.478a.781.781 0 100-1.562.781.781 0 000 1.562zM77.23 37.478a.78.78 0 100-1.562.78.78 0 000 1.562zM98.562 31.896a1.128 1.128 0 11-2.256 0v-2.677l-1.561.367v2.312a1.128 1.128 0 01-2.257 0v-2.68l-1.561.368v2.312a1.128 1.128 0 01-1.126 1.126h-5.418a1.128 1.128 0 01-1.123-1.128v-5.74l-1.562.38v5.355a2.69 2.69 0 002.685 2.687h5.426a2.678 2.678 0 001.906-.796 2.687 2.687 0 003.828 0 2.69 2.69 0 004.594-1.891v-3.063l-1.575.39v2.678z"/></g><path d="M89.24 45.09c-.25 0-.47-.04-.65-.13-.19-.08-.35-.2-.49-.35-.57.32-1.19.48-1.87.48-.38 0-.66-.05-.85-.15-.19-.1-.28-.25-.28-.43 0-.2.05-.36.16-.49.15.13.33.22.53.28.2.06.44.09.73.09.38 0 .81-.06 1.28-.19-.24-.41-.43-.83-.59-1.26-.16-.43-.24-.74-.24-.91 0-.3.16-.51.49-.61.13.46.24.85.34 1.17.1.32.2.57.29.77.09.2.2.39.32.56.13.18.25.3.38.37s.28.1.45.1c.05 0 .08.03.08.08v.55c0 .05-.03.08-.08.08v-.01z" fill="#FCFCFC" stroke="#FCFCFC" stroke-width=".2" stroke-miterlimit="10"/><path d="M91.75 42.99c.08 0 .16.02.23.07-.11.27-.21.49-.29.67-.08.18-.13.28-.15.3.21.13.4.22.58.28.18.05.37.08.58.08.05 0 .08.03.08.08v.55c0 .05-.03.08-.08.08-.57 0-1.06-.18-1.46-.54l-.15.2c-.06.07-.29.14-.67.22-.38.08-.76.12-1.13.12-.05 0-.08-.03-.08-.08v-.55c0-.05.03-.08.08-.08.38 0 .71-.02.97-.05.26-.03.45-.09.56-.17.11-.08.27-.32.49-.74l.16-.3c.05-.1.15-.15.29-.15l-.01.01zm-.83 3.28c-.11.18-.29.39-.55.63-.28-.22-.48-.41-.61-.56.16-.15.36-.36.6-.62.05.06.24.24.57.56l-.01-.01zm1.4-.13c-.11.17-.3.38-.56.63-.27-.21-.47-.4-.61-.56.14-.13.34-.33.6-.62.05.06.24.25.57.56v-.01z" fill="#FCFCFC" stroke="#FCFCFC" stroke-width=".2" stroke-miterlimit="10"/><path d="M92.81 45.09c-.05 0-.08-.03-.08-.08v-.55c0-.05.03-.08.08-.08.23 0 .42-.02.58-.07.16-.04.29-.11.38-.19.09-.08.24-.32.43-.7l.16-.3c.05-.1.15-.15.28-.15.08 0 .16.02.23.07-.13.33-.28.65-.45.98.21.13.41.22.58.27.17.05.37.08.58.08.05 0 .08.03.08.08V45c0 .05-.03.08-.08.08-.57 0-1.06-.18-1.46-.54l-.15.2c-.06.08-.21.16-.44.23s-.47.11-.73.11l.01.01zm1.96-3.32c-.14.21-.34.43-.6.68-.27-.22-.5-.42-.66-.6.32-.32.53-.54.65-.68.2.21.4.41.61.6z" fill="#FCFCFC" stroke="#FCFCFC" stroke-width=".2" stroke-miterlimit="10"/><path d="M95.64 45.09c-.05 0-.08-.03-.08-.08v-.55c0-.05.03-.08.08-.08.42 0 .8-.02 1.12-.07.32-.04.61-.1.85-.17s.5-.17.76-.31c-.11-.34-.32-.67-.64-.96-.31-.3-.75-.58-1.3-.85-.07.02-.15.03-.23.03-.16 0-.3-.06-.4-.17a.589.589 0 01-.16-.43c0-.14.03-.31.1-.53.07-.22.11-.34.15-.36.82-.42 1.45-.74 1.89-.94.44-.2.9-.4 1.4-.6.09.08.14.2.14.35v.08c-.03.21-.16.37-.39.46-1.26.53-2.24.95-2.94 1.27.47.11.92.3 1.35.56.43.26.77.56 1.03.88.26.33.38.63.38.92 0 .49-.26.87-.77 1.13-.51.26-1.29.39-2.33.39l-.01.03zM109.16 45.09c-.62 0-1.15-.22-1.58-.66-.38.2-.84.36-1.38.48-.55.12-1.14.18-1.78.18-.73 0-1.28-.13-1.67-.39-.39-.26-.58-.66-.58-1.18 0-.38.04-.72.13-1.02h.33l-.02.19c0 .1-.01.19-.01.27 0 .36.07.63.2.83.14.2.35.34.65.45.3.1.69.15 1.18.15.52 0 1.07-.06 1.65-.17.58-.11.95-.23 1.11-.34.08-.05.13-.11.18-.17.04-.05.09-.13.15-.24l.13-.24c.06-.1.15-.14.29-.14.09 0 .16.02.22.07-.17.41-.3.69-.38.84.21.14.4.23.58.29.19.06.39.09.63.09.05 0 .08.03.08.08v.55c0 .05-.03.08-.08.08h-.03zm-4.06-3.45c-.11.18-.29.39-.55.63-.28-.22-.48-.41-.61-.56.16-.15.36-.36.6-.62.07.08.26.26.56.56v-.01zm1.4-.13c-.11.18-.3.39-.56.63-.26-.21-.46-.4-.61-.57.07-.06.26-.27.6-.62.07.08.26.27.57.56z" fill="#FCFCFC" stroke="#FCFCFC" stroke-width=".2" stroke-miterlimit="10"/><path d="M112.17 43.89c-.03-.25-.07-.5-.13-.73-.19.16-.4.29-.63.38-.23.09-.46.14-.69.14-.27 0-.49-.1-.66-.31-.17-.21-.25-.46-.25-.77 0-.47.11-.89.34-1.25.23-.36.5-.54.81-.54.31 0 .6.11.85.34.25.23.44.55.59.98.14.42.22.88.22 1.36 0 .21-.11.52-.32.94-.37.23-.79.4-1.26.51-.46.11-1.07.16-1.83.16-.06 0-.09-.03-.09-.09v-.53c0-.06.03-.09.09-.09.67 0 1.23-.04 1.69-.12.46-.08.89-.21 1.27-.38zm-1.35-2.3c-.19 0-.34.09-.47.26-.12.17-.19.36-.19.57 0 .19.06.33.19.42.12.09.32.13.6.13.3 0 .63-.08.98-.23-.12-.37-.28-.66-.46-.86-.19-.2-.4-.3-.64-.3l-.01.01zm.79-2c-.14.21-.34.43-.6.68-.27-.22-.5-.42-.66-.6.32-.32.53-.54.65-.68.2.21.4.41.61.6zM115.1 44.46v.55c0 .05-.03.08-.08.08-.36 0-.67-.07-.91-.21a.763.763 0 01-.4-.59c-.1-.79-.2-2.01-.32-3.65l-.09-1.23c.17-.17.38-.35.62-.51.04.94.08 2.27.1 3.99l.03 1.27c.29.16.61.24.96.24.05 0 .08.03.08.08l.01-.02z" fill="#FCFCFC" stroke="#FCFCFC" stroke-width=".2" stroke-miterlimit="10"/><path d="M115.06 45.09c-.05 0-.08-.03-.08-.08v-.55c0-.05.03-.08.08-.08.46 0 .89-.03 1.31-.09.42-.06.74-.14.95-.25-.06-.25-.17-.59-.33-1.02-.12-.32-.18-.53-.18-.62 0-.14.06-.27.17-.42.11-.14.26-.26.44-.37.03.18.06.36.1.54.04.18.08.35.12.52.04.17.07.34.09.5.03.16.04.31.04.45 0 .21-.11.53-.32.94-.25.15-.6.28-1.05.37-.45.09-.89.14-1.33.14l-.01.02zm1.53 1.17c-.11.18-.29.39-.55.63-.28-.22-.48-.41-.61-.56.16-.15.36-.36.6-.62.05.06.24.24.56.56v-.01zm1.4-.13c-.11.17-.3.38-.55.63-.27-.21-.47-.4-.61-.56.14-.13.34-.33.6-.62.05.06.24.25.57.56l-.01-.01zM119.14 46.98c-.15 0-.35-.06-.61-.17a2.99 2.99 0 01-.61-.35l.13-.31c.34.07.63.1.87.1.46 0 .86-.14 1.19-.41.33-.27.58-.68.75-1.2-.08-.2-.17-.39-.28-.58a8.13 8.13 0 01-.47-.9c-.1-.23-.15-.42-.15-.57 0-.15.05-.28.14-.38.1-.09.23-.18.4-.27.04.17.11.36.19.56.08.21.16.42.23.63.08.22.15.43.2.64.06.21.09.4.09.58 0 .48-.09.92-.27 1.33-.18.41-.43.73-.75.96-.32.23-.67.34-1.05.34zM122.76 45.09c-.38 0-.66-.05-.85-.15-.19-.1-.28-.25-.28-.43 0-.2.05-.36.16-.49.15.13.33.22.53.28.2.06.44.09.73.09.41 0 .83-.06 1.25-.19a6.2 6.2 0 00-.38-.85l-.32-.58c-.09-.16-.16-.3-.2-.41a.974.974 0 01-.06-.34c0-.3.16-.51.49-.61.09.25.19.49.3.72.11.23.2.44.29.64.09.2.16.38.23.55.06.17.09.33.09.47 0 .09-.03.22-.09.39s-.14.35-.24.55c-.45.24-1 .36-1.67.36h.02zM120.75 22.55c-.16 0-.38-.06-.65-.19-.28-.12-.5-.25-.65-.37l.14-.33c.36.07.68.11.94.11.5 0 .93-.15 1.28-.45.35-.3.63-.73.82-1.3a8.99 8.99 0 00-.3-.63c-.23-.4-.4-.73-.51-.97-.11-.25-.16-.45-.16-.62 0-.17.05-.31.15-.41.1-.1.24-.2.43-.29.05.18.12.39.2.61.08.22.17.45.25.68.08.23.16.46.22.69.06.23.09.43.09.62 0 .52-.1 1-.29 1.44-.2.44-.47.79-.81 1.04-.34.25-.72.37-1.14.37h-.01zm1.49-6.77c-.16.22-.37.47-.64.73-.3-.23-.54-.45-.72-.65.34-.34.57-.59.7-.73.21.23.43.45.66.65zM124.8 17.18v.62c0 .64-.02 1.52-.07 2.62l-.46.08c-.04-2.34-.13-4.28-.27-5.82v-.13c0-.21.05-.38.15-.5.11-.12.27-.21.5-.26 0 .04.02.08.03.12 0 .04.12.39.33 1.07l-.27.23v.05c.04.72.06 1.35.06 1.91v.01z" fill="#FCFCFC" stroke="#FCFCFC" stroke-width=".2" stroke-miterlimit="10"/><path d="M45.634 19.522c-2.324-2.143-6.147-2.342-10.223-.534l-.035.015-.267.122c-.344.16-.68.328-.996.51l-.29.157a31.769 31.769 0 00-6.781 5.221c-.43.43-.844.865-1.242 1.306-.237.254-.466.509-.69.784.114.52.254 1.034.42 1.54.443-.55.916-1.097 1.415-1.64l.018-.017c.326-.352.665-.7 1.018-1.047a29.962 29.962 0 016.764-5.152c.295-.157.608-.313.934-.465l.272-.125c3.59-1.591 6.873-1.482 8.81.298 2.138 1.972 2.357 5.765.568 9.9a21.93 21.93 0 01-9.979 10.48 19.481 19.481 0 01-3.054-1.895c.944 0 2.392-.145 3.284-.634 1.443-.791-.184-1.316-.184-1.316.57-.226 3.74-1.395 5.565-4.218.211-.328 1.036-1.654.17-1.697a10.84 10.84 0 001.41-2.856c.91-2.841 1.299-6.008-1.142-6.448-.953-.17-2.192.224-3.46 1.191a11.378 11.378 0 00-3.612 4.307c-.255-.313-.817-1.418-1.476-.858-1.528 1.214-2.594 3.498-3.055 4.99-.657-1.09-1.313-1.273-1.43-.09-.087.873-.296 2.037-.792 2.839-.32-.446-.614-.891-.878-1.33a17.577 17.577 0 01-1.253-2.491c-.12-.275-.231-.555-.336-.833-.033-.091-.066-.18-.096-.272a14.81 14.81 0 01-.451-1.527 9.957 9.957 0 01-.196-3.959 5.9 5.9 0 011.652-3.296c2.637-2.571 6.387-2.052 8.224-1.66.14.038.285.057.43.056.082 0 .087-.053.072-.089-.038-.084-.402-.214-.51-.254-3.68-1.319-6.979-.965-9.094.982-1.273 1.179-2.009 2.843-2.167 4.801a12.773 12.773 0 00.594 4.714c-.151.204-.29.397-.418.58l-.084.123-.13.193a3.81 3.81 0 00-.122.184l-.1.152-.165.255c-.155.255-.302.491-.445.733l-.03.053a19.318 19.318 0 00-.894 1.714c-1.258 2.754-1.344 4.813-.178 5.977 1.166 1.163 3.35 1.018 6.109-.232 2.558-1.166 5.493-3.533 8.087-6.173a33.814 33.814 0 003.223-3.877c.595-.812.595-.947.54-.98-.057-.033-.204.138-.787.891a33.433 33.433 0 01-9.828 8.235c-2.994 1.652-5.476 2.11-6.382 1.204-.73-.73-.585-2.337.397-4.496l.125-.27v-.022a22.776 22.776 0 011.598-2.73c.049.12.097.24.15.357a23.893 23.893 0 001.714 3.25c.4.641.846 1.251 1.336 1.826a8.588 8.588 0 001.67-3.897c.015-.135.104-.28.28-.08.214.298.408.61.58.933a.034.034 0 00.03.017.033.033 0 00.029-.017c.442-1.98 1.416-3.801 2.818-5.267.102-.107.369-.395.473-.313.377.373.7.796.962 1.257a.092.092 0 00.087.043.091.091 0 00.076-.058c.255-.687 1.075-2.584 3.442-4.49 1.245-1 2.352-1.146 2.993-1.118 1.35.054 2.831 1.871.364 7.174-.117.254-.417.661-.682.738l-2.426.55s-.34.096.13.07c.255-.012 1.354.016 1.354.016.922-.04 1.133.178.853.695-1.962 3.61-5.707 4.452-6.53 4.597a.052.052 0 00-.041.044.051.051 0 00.03.053c.381.188 1.338.705 1.017.993-.595.54-2.461.914-5.172.567 0 0 2.51 2.363 5.36 3.691a.803.803 0 00.668 0 22.004 22.004 0 006.768-5.063 22.537 22.537 0 004.104-6.216c2.016-4.658 1.68-9.021-.884-11.38" fill="#08BA9E"/><defs><clipPath id="clip0_7035_40988"><path fill="#fff" transform="translate(71 24)" d="M0 0h53.813v14H0z"/></clipPath></defs></svg>