<svg version="1.1" id="Layer_1" xmlns="http://www.w3.org/2000/svg" x="0" y="0" viewBox="372 -81.9 1000 333" xml:space="preserve"><style>.st1{fill:#fff}</style><path d="M1322.3 227.6H425.1c-18.6 0-33.8-15.2-33.8-33.8V-24.6c0-18.6 15.2-33.8 33.8-33.8h897.2c18.6 0 34.3 15.2 34.3 33.8v218.4c.1 18.5-15.7 33.8-34.3 33.8z" fill="#a6a6a6"/><path d="M1349.8 193.7c0 15.1-12.3 27.4-27.4 27.4H425.1c-15.2 0-27.5-12.3-27.5-27.4V-24.7c0-15.1 12.3-27.4 27.5-27.4h897.2c15.2 0 27.4 12.3 27.4 27.4v218.4h.1z"/><path class="st1" d="M1061.8 81.8c.6 1.9 1.1 3.9 1.7 5.8.2.8.4 1.7.7 2.5s.4 1.8.6 2.6c.2.9.4 1.7.5 2.6.1.8.3 1.6.3 2.3 0 .2 0 .5.1.8v1c0 1.8-.3 3.6-.8 5.3s-1.3 3.4-2.2 4.9c-.9 1.6-2.1 3.1-3.4 4.5-1.3 1.5-2.7 2.8-4.3 4.1-1.5 1.3-3.2 2.4-4.9 3.5s-3.4 2.1-5.2 2.9l-2.7-5.5c2.2-1.1 4.3-2.4 6.4-3.8 2.1-1.4 3.9-3 5.5-4.7s2.9-3.5 3.9-5.4 1.5-3.9 1.5-5.9v-.5c0-.2 0-.5-.1-.7-.1-.6-.2-1.4-.3-2.1-.1-.8-.3-1.6-.5-2.4l-.6-2.4c-.2-.8-.4-1.6-.6-2.3-.5-1.8-1-3.5-1.6-5.3l6-1.8zm1.5-12.8l-5.1 5.1-5.2-5.2 5.1-5.1 5.2 5.2zm13.3 33.1c.3-4.8.5-9.3.6-13.5.1-4.2.1-8.2 0-11.8-.1-3.6-.2-6.8-.4-9.7-.2-2.9-.4-5.3-.6-7.3s-.3-3.6-.5-4.7c-.1-1.1-.2-1.7-.2-1.7l6.2-.9c0 .1.2 1.4.5 3.8.1 1.2.3 2.5.4 3.9.1 1.4.2 2.9.3 4.5s.2 3.1.3 4.5c.1 1.4.1 2.8.2 4.1.1 3.9.2 8.2.1 13.1 0 4.9-.2 10.2-.6 16l-6.3-.3zm85.6-5.1c-.8-1-1.5-2.1-2-3.4-5.5 5.8-14.3 8.7-26.2 8.7-6.4 0-11.6-.8-15.8-2.3s-7.2-3.8-9.1-7c-.6-1-1.1-2.1-1.4-3.2-.3-1.1-.5-2.2-.6-3.3s-.1-2.1 0-3.2c.1-1 .3-2 .5-3 .3-1 .5-1.9.8-2.7.3-.8.5-1.5.7-2.1s.4-1 .6-1.4c.2-.3.3-.5.3-.6l5.4 3-.3.6c-.2.4-.4.9-.6 1.6-.2.6-.5 1.4-.7 2.3-.2.9-.4 1.8-.4 2.7-.1.9 0 1.9.2 2.9s.5 1.9 1 2.8c1.3 2.1 3.5 3.7 6.8 4.8 3.3 1.1 7.5 1.6 12.6 1.6 4.6 0 8.6-.4 11.8-1.2s5.9-2.1 8.1-3.8c1-.8 1.8-1.6 2.5-2.5s1.3-1.8 1.8-2.8.9-1.9 1.2-2.9.6-1.9.9-2.9l6 1.6c-.1.4-.2.9-.3 1.4-.1.5-.3 1.1-.4 1.7-.3 1.2-.4 2.3-.3 3.1 0 .9.2 1.8.4 2.8s.7 1.9 1.3 2.6c1.5 1.9 4 2.8 7.5 2.8.9 0 1.6.3 2.2.9.6.6.9 1.3.9 2.2s-.3 1.6-.9 2.2c-.6.6-1.3.9-2.2.9h-.3c-5.4.2-9.4-1.5-12-4.9zm-27-25.7l-5.1 5.1-5.2-5.1 5.1-5.1 5.2 5.1zm12.9 0l-5.1 5.1-5.2-5.2 5.1-5.1 5.2 5.2z"/><path class="st1" d="M1171.8 99.1c0-.9.3-1.6.9-2.2.6-.6 1.4-.9 2.2-.9 2.3 0 4.5-.1 6.4-.3 2-.2 3.7-.5 5.2-.9 1.5-.3 2.8-.7 3.9-1.2 1.1-.4 1.9-.8 2.4-1.2.3-.2.5-.4.7-.6.2-.2.3-.4.5-.6h-3.2c-1.1 0-2.2-.1-3.3-.3-1.1-.2-2.1-.4-3-.8-.9-.4-1.8-.8-2.6-1.3s-1.4-1.1-2-1.8c-.3-.4-.6-.8-.9-1.4-.3-.5-.5-1.2-.7-1.9s-.3-1.5-.3-2.4 0-1.8.2-2.9c.3-1.6.7-3.1 1.3-4.4.6-1.3 1.3-2.5 2.1-3.6.9-1.2 2-2.2 3.2-2.8s2.4-.9 3.6-.9c2.8 0 5.3 1.2 7.5 3.7 1 1.1 1.8 2.3 2.6 3.7.7 1.4 1.3 2.9 1.8 4.5s.8 3.3.9 5c.2 1.7.2 3.4 0 5.1-.1.8-.3 1.7-.5 2.5-.1.3-.2.6-.3 1s-.3.9-.6 1.4-.7 1.1-1.2 1.7c-.5.6-1.1 1.2-1.9 1.8-1 .8-2.3 1.5-3.8 2.1s-3.2 1.1-5.1 1.5c-1.9.4-3.9.7-6 .9s-4.3.3-6.4.3h-.5c-.9 0-1.6-.3-2.2-.9-.5-.3-.9-1-.9-1.9zm20.9-43.1l-5.1 5.1-5.2-5.2 5.1-5.1 5.2 5.2zm-4.3 17c-.3 0-.6.1-1 .4-.4.3-.8.7-1.2 1.3s-.8 1.3-1.1 2.1-.6 1.8-.8 2.8c-.3 1.6-.1 2.7.5 3.5.4.5 1 .9 1.8 1.2s1.8.5 2.9.6c1.1 0 2.1.1 3 .1s1.7 0 2.4-.1c-.1-2-.5-4-1.2-5.8-.6-1.8-1.5-3.3-2.6-4.5-.3-.4-.8-.7-1.3-1.1-.2-.3-.7-.5-1.4-.5zm36 29.2c-2.3 0-4.3-.3-5.9-.8-1.6-.5-3-1.4-4.2-2.5-.7-.7-1.2-1.4-1.6-2.2-.4-.8-.6-1.6-.8-2.4-.2-.8-.3-1.5-.3-2.2V76c0-1.8 0-3.7-.1-5.6 0-2-.1-3.8-.2-5.7-.1-1.8-.2-3.5-.3-5s-.3-2.8-.5-3.8l6.2-1.1c.2 1.1.4 2.4.5 3.9.1 1.6.3 3.2.4 5.1.1 1.8.2 3.7.2 5.7s.1 3.9.1 5.8v15.2c0 .9 0 1.7.1 2.4s.4 1.3.9 1.7c.9 1 2.7 1.5 5.3 1.5h.3c.4 0 .8.1 1.2.3.4.2.7.4 1 .7.3.3.5.6.7 1s.3.8.3 1.2c0 .9-.3 1.6-.9 2.2-.5.6-1.5.7-2.4.7z"/><path class="st1" d="M1219.7 99.1c0-.9.3-1.6.9-2.2.6-.6 1.3-.9 2.2-.9h5.9c.9 0 1.7-.1 2.6-.1.9 0 1.7-.2 2.6-.4.8-.2 1.6-.4 2.3-.7s1.3-.6 1.9-1.1c.5-.4.9-.9 1.2-1.5.4-.9.5-2.2.4-3.8-.2-1.7-.6-3.6-1.3-5.8-.2-.7-.5-1.4-.8-2.2-.3-.8-.6-1.5-.9-2.2-.3-.8-.7-1.6-1-2.4l5.6-2.8.3.6c.2.4.4 1 .7 1.6.3.7.6 1.5 1 2.4.4.9.7 1.9 1 2.9 2 6 2.2 10.7.7 14.1-1.5 3.4-4.1 5.6-7.9 6.7-.6.2-1.3.3-2.2.4-.9.1-1.8.2-2.7.2s-1.8.1-2.6.1h-6.8c-.9 0-1.6-.3-2.2-.9-.7-.4-.9-1.1-.9-2zm15.1 13.9l-5.1 5.1-5.2-5.1 5.1-5.1 5.2 5.1zm13 .1l-5.1 5.1-5.2-5.2 5.1-5.1 5.2 5.2zm19.4-31.3c.6 1.9 1.1 3.9 1.7 5.8.2.8.4 1.7.7 2.5s.4 1.8.6 2.6c.2.9.4 1.7.5 2.6.1.8.3 1.6.3 2.3 0 .2 0 .5.1.8v1c0 1.8-.3 3.6-.8 5.3s-1.3 3.4-2.2 4.9c-.9 1.6-2.1 3.1-3.4 4.5-1.3 1.5-2.7 2.8-4.3 4.1-1.5 1.3-3.2 2.4-4.9 3.5s-3.4 2.1-5.2 2.9l-2.7-5.5c2.2-1.1 4.3-2.4 6.4-3.8 2.1-1.4 3.9-3 5.5-4.7s2.9-3.5 3.9-5.4 1.5-3.9 1.5-5.9v-.5c0-.2 0-.5-.1-.7-.1-.6-.2-1.4-.3-2.1-.1-.8-.3-1.6-.5-2.4l-.6-2.4c-.2-.8-.4-1.6-.6-2.3-.5-1.8-1-3.5-1.6-5.3l6-1.8zm24.9 20.3c-1 0-2.2-.1-3.6-.4-1.4-.3-2.7-.6-4.1-1-1.4-.4-2.6-.8-3.7-1.3s-2-1-2.5-1.5l2.6-5.9c.8.5 1.7 1 2.8 1.5 1.1.5 2.2.9 3.5 1.2 1.2.3 2.5.6 3.8.8s2.6.2 3.8.1c1.2-.1 2.3-.4 3.4-.8 1-.4 1.9-1.1 2.6-1.9.6-.6.6-1.9.2-3.6-.2-1-.6-2.1-1.1-3.2-.5-1.1-1.1-2.2-1.9-3.4-.7-1.1-1.5-2.2-2.4-3.3s-1.8-2.1-2.8-3-1.9-1.7-2.9-2.4-2-1.3-2.9-1.7l2.5-5.7c1.2.6 2.5 1.3 3.7 2.2 1.3.9 2.5 1.9 3.7 3 1.2 1.1 2.3 2.4 3.4 3.7 1.1 1.3 2.1 2.7 2.9 4.1.9 1.4 1.6 2.8 2.3 4.2.6 1.4 1.1 2.8 1.4 4.1.3 1.2.4 2.2.4 3.2 0 .9-.1 1.8-.3 2.5-.2.7-.4 1.4-.7 1.9-.3.6-.6 1-.9 1.4-1.9 2.3-4.6 3.9-8.1 4.6-.8.2-1.6.4-2.5.4-.8.2-1.8.2-2.6.2z"/><g id="XMLID_21_"><g id="XMLID_22_"><path id="XMLID_26_" class="st1" d="M702.5 68.2c2.8 0 5.2-1 7.2-3 .6-.6 1.1-1.3 1.5-1.9.4.7.9 1.3 1.4 1.9 2 2 4.3 3 7.1 3s5.2-1 7.1-3c2-2 2.9-4.4 2.9-7.2s-1-5.2-2.9-7.1c-1.9-1.9-4.3-2.9-7.1-2.9s-5.2 1-7.1 2.9c-.6.6-1.1 1.2-1.4 1.9-.4-.7-.9-1.3-1.5-1.9-2-2-4.4-2.9-7.2-2.9-2.7 0-5.2 1-7.1 3-1.9 2-3 4.3-3 7.1s1 5.2 2.9 7.2c2 1.9 4.4 2.9 7.2 2.9z"/><path id="XMLID_25_" class="st1" d="M907.8 51c-2.4 0-4.4.8-5.9 2.6-1.6 1.7-2.4 3.8-2.4 6.2 0 1.7.5 4.3 1.3 7.7.8 3.3 1.3 5.9 1.3 7.7 0 6.1-4.4 9.2-13.1 9.2h-10.2c-7.8 0-15.2-3.4-22.3-10.2-8.3-8.2-13.8-13.7-16.7-16.6-10.2-9.9-18.9-17.7-26.2-23.7-1.2-1-1.8-2.1-1.8-3.3s.8-2.1 2.2-2.7c14.6-5.7 30.3-10.5 46.9-14.3 5.2-1.1 7.7-3.9 7.7-8.2 0-5.7-3.3-8.6-10-8.6-1.1 0-2.5.2-4 .5-24.4 5.7-42.2 12.1-53.6 19-5.1 3.1-7.6 8.2-7.6 15.2 0 3.4.5 6.1 1.7 8.2 2 3.5 8.5 10.1 19.6 19.6 9.9 8.5 14.8 14.3 14.8 17.3 0 4.1-4.2 6.5-12.6 7.4-1.8.2-8.6.2-20.5.2H791c-7.9 0-12.4-3.2-13.7-9.6-.7-3.6-1.1-5.8-1.3-6.7-1.1-2.6-3.1-3.9-6.1-3.9-2.7 0-4.9 1.7-6.4 5.2-2.5 5.6-4 8.9-4.8 9.8-5.2 6.6-19 9.9-41.3 9.9h-10.8c-15.2 0-25.6-1.7-31.2-5.3-3.8-2.4-5.7-6.1-5.7-11 0-1.4.3-3.6.9-6.4.6-2.9.9-5 .9-6.4 0-4.3-2.1-6.4-6.4-6.4-4 0-7.2 3.5-9.3 10.5-1.5 4.9-2.3 10-2.3 15.3 0 20.4 17.4 30.6 52.2 30.6 33.4 0 54.2-5.2 62-15.7 3.4 7.2 10.1 10.8 20 10.8h6.3c15.1 0 25.7-.9 31.9-2.8 9.5-2.9 15.3-8.9 17.5-17.9 9.8 13.8 22 20.7 36.5 20.7h7.9c9.8 0 17.4-2.9 23-8.6 5.6-5.7 8.3-13.5 8.3-23.4-.1-14.6-3.8-21.9-11.3-21.9z"/><path id="XMLID_24_" class="st1" d="M893.3 115.8c-2.7 0-5.2 1-7.1 3-1.3 1.3-2.1 2.8-2.6 4.4-.5-1.7-1.3-3.1-2.6-4.4-2-2-4.3-3-7.1-3s-5.2 1-7.2 2.9-3 4.3-3 7.1 1 5.2 3 7.2 4.4 3 7.2 3 5.2-1 7.1-3c1.3-1.3 2-2.8 2.5-4.5.5 1.7 1.2 3.2 2.5 4.5 2 2 4.3 3 7.1 3s5.2-1 7.2-3 3-4.4 3-7.2-1-5.2-3-7.1-4.1-2.9-7-2.9z"/><path id="XMLID_23_" class="st1" d="M1017.3 65.2c-3.6-5.7-8.8-8.6-15.5-8.6-5.6 0-11.1 3-16.7 9-1.1 1.3-3.9 5.1-8.3 11.4-2 2.9-3.9 4.9-5.8 5.8-1.8 1-4.4 1.5-7.8 1.5h-2.3c-9.3 0-13.8-5.7-13.8-17V8c0-7.9-3-11.8-9-11.8-3 0-5.4 1.3-7 3.8-1.4 2.2-2 4.9-2 8l2 56.1c.5 14 2 23.4 4.3 28.5 3.9 8.3 11.7 12.4 23.4 12.4h6.4c6.5 0 12-2.3 16.5-6.8 5.1 6.1 11.6 9.1 19.7 9.1 6.3 0 11.4-2.5 15.2-7.6 3.5-4.6 5.2-10 5.2-16.5.2-7.2-1.5-13.2-4.5-18zm-16.3 25c-2 0-4-.6-6.4-1.7-2.7-1.4-4-3-4-4.7 0-2.3 1.1-4.5 3.4-6.5s4.6-3.1 6.8-3.1c2.3 0 4.1 1.1 5.5 3.2 1.1 1.8 1.7 3.9 1.7 6.4 0 4.3-2.2 6.4-7 6.4z"/></g></g><g id="XMLID_15_"><g id="XMLID_16_"><circle id="XMLID_20_" cx="534.5" cy="66.1" r="89.6" fill="#0091ea"/><g id="XMLID_17_"><path id="XMLID_19_" class="st1" d="M589.5 55.5c-.7-17-14.7-30.4-31.8-30.4-9.5 0-18.1 4.2-23.9 10.8a31.82 31.82 0 00-23.9-10.8c-16.8 0-30.6 13-31.8 29.5 0 .4-.1.8-.1 1.2v36c0 4.4 3.6 8 8 8h.2c4.4 0 8-3.6 8-8V57c0-8.7 7.1-15.8 15.8-15.8s15.8 7.1 15.8 15.8v29.4c0 4.4 3.6 8 8 8h.2c4.4 0 8-3.6 8-8V57c0-8.7 7.1-15.8 15.8-15.8s15.8 7.1 15.8 15.8v34.9c0 4.4 3.5 7.9 7.9 7.9h.2c4.4 0 7.9-3.5 7.9-7.9V56.3c-.1-.3-.1-.6-.1-.8z"/><path id="XMLID_18_" class="st1" d="M559.3 102.8c-.4-.6-1.5.6-1.5.6-4.4 4.8-13.6 7.9-23.1 7.9s-18.6-3.1-23.1-7.9c0 0-1.2-1.2-1.5-.6-.5.7.2 1.8.2 1.8 5.7 8.2 14.3 11.8 24.4 11.8 10.1 0 18.7-3.7 24.4-11.8-.1.1.7-1 .2-1.8z"/></g></g></g></svg>