<?xml version="1.0" encoding="utf-8"?>
<svg width="20" height="18" fill="none" xmlns="http://www.w3.org/2000/svg">
  <path d="M 18.341 5.307 C 16.638 3.698 15.457 1.411 12.161 1.72 C 10.875 1.841 9.791 2.533 8.721 3.1 C 5.557 4.779 2.177 6.662 -0.791 8.233 C 0.264 9.503 1.343 10.75 2.541 11.876 C 5.765 10.119 9.191 8.076 12.537 6.246 C 14.199 5.337 16.269 4.475 18.341 5.307 Z M 9.097 3.431 L 10.71 2.533 L 13.166 5.222 L 11.521 6.091 L 9.097 3.431 Z" style="fill: rgb(8, 186, 158);"/>
  <path d="M 15.922 5.418 C 14.553 5.542 13.425 6.234 12.321 6.853 C 9.014 8.709 5.767 10.509 2.647 12.372 L 2.647 15.077 C 3.881 14.451 5.148 13.757 6.409 13.035 C 7.659 12.321 8.875 11.471 10.226 10.938 C 10.46 14.007 12.37 15.794 15.439 15.519 C 18.221 15.27 20.819 12.935 21.028 10.11 C 21.254 7.063 18.911 5.149 15.922 5.418 Z" style="fill: rgb(8, 186, 158);"/>
  <path d="M -0.738 11.103 L 0.444 10.385 L -0.792 9.116 L -0.738 11.103 Z" style="fill: rgb(8, 186, 158);"/>
  <path d="M 0.659 10.772 L -0.669 11.507 L 2.056 14.428 L 2.095 12.207 C 1.612 11.748 0.659 10.772 0.659 10.772 Z" style="fill: rgb(8, 186, 158);"/>
  <path d="M 9.365 11.82 C 9.532 12.129 9.907 12.515 10.118 12.593 C 9.966 12.326 9.945 11.924 9.903 11.545 C 9.683 11.595 9.53 11.714 9.365 11.82 Z" style="fill: rgb(8, 186, 158);"/>
  <path d="M 10.612 3.152 L 9.878 3.561 L 11.624 5.478 L 12.375 5.081 L 10.612 3.152 Z" style="fill: rgb(8, 186, 158);"/>
</svg>